<?xml version="1.0" encoding="UTF-8"?>
<svg id="Layer_1" data-name="Layer 1" xmlns="http://www.w3.org/2000/svg" viewBox="0 0 839.54 1642.31">
  <defs>
    <style>
      .cls-1 {
        stroke-dasharray: 3.9 3.9;
      }

      .cls-1, .cls-2, .cls-3, .cls-4, .cls-5, .cls-6 {
        stroke: #000;
      }

      .cls-1, .cls-2, .cls-3, .cls-4, .cls-5, .cls-6, .cls-7 {
        fill: none;
        stroke-miterlimit: 10;
      }

      .cls-1, .cls-2, .cls-3, .cls-6 {
        stroke-width: 4px;
      }

      .cls-2 {
        stroke-dasharray: 3.93 3.93;
      }

      .cls-8 {
        fill: #ccc;
      }

      .cls-9 {
        fill: #0071bc;
      }

      .cls-10 {
        fill: #fff;
      }

      .cls-3 {
        stroke-dasharray: 4.1 4.1;
      }

      .cls-4 {
        stroke-linecap: square;
      }

      .cls-4, .cls-5 {
        stroke-width: 5px;
      }

      .cls-7 {
        stroke: #0071bc;
        stroke-width: 2px;
      }
    </style>
  </defs>
  <g>
    <line class="cls-6" x1="103.91" y1="626.16" x2="102.46" y2="627.54"/>
    <line class="cls-2" x1="99.62" y1="630.25" x2="15.82" y2="710.22"/>
    <line class="cls-6" x1="14.4" y1="711.57" x2="12.96" y2="712.95"/>
    <polygon points="11.38 699.1 15.64 710.4 26.72 715.17 0 725.32 11.38 699.1"/>
  </g>
  <g>
    <line class="cls-6" x1="103.91" y1="824.49" x2="101.91" y2="824.49"/>
    <line class="cls-1" x1="98" y1="824.49" x2="21.86" y2="824.49"/>
    <line class="cls-6" x1="19.91" y1="824.49" x2="17.91" y2="824.49"/>
    <polygon points="26.34 813.38 21.62 824.49 26.33 835.6 0 824.49 26.34 813.38"/>
  </g>
  <g>
    <line class="cls-6" x1="821.63" y1="824.54" x2="819.63" y2="824.54"/>
    <line class="cls-1" x1="815.73" y1="824.54" x2="739.58" y2="824.53"/>
    <line class="cls-6" x1="737.63" y1="824.53" x2="735.63" y2="824.53"/>
    <polygon points="813.2 813.43 817.92 824.54 813.2 835.64 839.54 824.54 813.2 813.43"/>
  </g>
  <g>
    <line class="cls-6" x1="826.58" y1="739.66" x2="825.14" y2="741.04"/>
    <line class="cls-3" x1="822.17" y1="743.87" x2="740.63" y2="821.69"/>
    <line class="cls-6" x1="739.14" y1="823.1" x2="737.7" y2="824.48"/>
    <polygon points="812.82 737.44 823.9 742.21 828.16 753.51 839.54 727.29 812.82 737.44"/>
  </g>
  <line class="cls-5" x1="103.91" y1="626.16" x2="103.91" y2="824.48"/>
  <line class="cls-5" x1="311.73" y1="824.48" x2="523.68" y2="626.16"/>
  <line class="cls-5" x1="311.73" y1="626.16" x2="523.68" y2="626.16"/>
  <line class="cls-5" x1="311.73" y1="626.16" x2="311.73" y2="824.48"/>
  <line class="cls-5" x1="311.73" y1="1019.48" x2="311.73" y2="824.48"/>
  <line class="cls-5" x1="523.68" y1="824.48" x2="311.73" y2="1019.48"/>
  <path class="cls-5" d="M311.73,824.48h211.95s-211.95,0-211.95,0Z"/>
  <line class="cls-5" x1="523.68" y1="1019.48" x2="311.73" y2="1019.48"/>
  <path class="cls-4" d="M703.36,837.4l-18.74,9.13c-29.24,14.25-53.84,36.51-70.94,64.18h0c-14.25,23.06-30.33,44.94-48.09,65.42l-16.95,19.55"/>
  <line class="cls-5" x1="735.63" y1="824.48" x2="523.68" y2="824.48"/>
  <line class="cls-5" x1="103.91" y1="626.16" x2="311.73" y2="626.16"/>
  <line class="cls-5" x1="103.91" y1="824.48" x2="311.73" y2="824.48"/>
  <g>
    <path class="cls-8" d="M523.68,658.16c-17.64,0-32-14.35-32-32s14.36-32,32-32,32,14.35,32,32-14.36,32-32,32Z"/>
    <path d="M523.68,596.66c16.27,0,29.5,13.23,29.5,29.5s-13.23,29.5-29.5,29.5-29.5-13.23-29.5-29.5,13.23-29.5,29.5-29.5M523.68,591.66c-19.05,0-34.5,15.45-34.5,34.5s15.45,34.5,34.5,34.5,34.5-15.45,34.5-34.5-15.45-34.5-34.5-34.5h0Z"/>
  </g>
  <g>
    <path class="cls-8" d="M523.68,856.48c-17.64,0-32-14.36-32-32s14.36-32,32-32,32,14.35,32,32-14.36,32-32,32Z"/>
    <path d="M523.68,794.98c16.27,0,29.5,13.23,29.5,29.5s-13.23,29.5-29.5,29.5-29.5-13.23-29.5-29.5,13.23-29.5,29.5-29.5M523.68,789.98c-19.05,0-34.5,15.45-34.5,34.5s15.45,34.5,34.5,34.5,34.5-15.45,34.5-34.5-15.45-34.5-34.5-34.5h0Z"/>
  </g>
  <g>
    <path class="cls-8" d="M523.68,1051.48c-17.64,0-32-14.36-32-32s14.36-32,32-32,32,14.36,32,32-14.36,32-32,32Z"/>
    <path d="M523.68,989.98c16.27,0,29.5,13.23,29.5,29.5s-13.23,29.5-29.5,29.5-29.5-13.23-29.5-29.5,13.23-29.5,29.5-29.5M523.68,984.98c-19.05,0-34.5,15.45-34.5,34.5s15.45,34.5,34.5,34.5,34.5-15.45,34.5-34.5-15.45-34.5-34.5-34.5h0Z"/>
  </g>
  <g>
    <path class="cls-8" d="M311.73,658.16c-17.65,0-32-14.35-32-32s14.35-32,32-32,32,14.35,32,32-14.35,32-32,32Z"/>
    <path d="M311.73,596.66c16.27,0,29.5,13.23,29.5,29.5s-13.23,29.5-29.5,29.5-29.5-13.23-29.5-29.5,13.23-29.5,29.5-29.5M311.73,591.66c-19.05,0-34.5,15.45-34.5,34.5s15.45,34.5,34.5,34.5,34.5-15.45,34.5-34.5-15.45-34.5-34.5-34.5h0Z"/>
  </g>
  <g>
    <path class="cls-8" d="M311.73,856.48c-17.65,0-32-14.36-32-32s14.35-32,32-32,32,14.35,32,32-14.35,32-32,32Z"/>
    <path d="M311.73,794.98c16.27,0,29.5,13.23,29.5,29.5s-13.23,29.5-29.5,29.5-29.5-13.23-29.5-29.5,13.23-29.5,29.5-29.5M311.73,789.98c-19.05,0-34.5,15.45-34.5,34.5s15.45,34.5,34.5,34.5,34.5-15.45,34.5-34.5-15.45-34.5-34.5-34.5h0Z"/>
  </g>
  <g>
    <path class="cls-8" d="M311.73,1051.48c-17.65,0-32-14.36-32-32s14.35-32,32-32,32,14.36,32,32-14.35,32-32,32Z"/>
    <path d="M311.73,989.98c16.27,0,29.5,13.23,29.5,29.5s-13.23,29.5-29.5,29.5-29.5-13.23-29.5-29.5,13.23-29.5,29.5-29.5M311.73,984.98c-19.05,0-34.5,15.45-34.5,34.5s15.45,34.5,34.5,34.5,34.5-15.45,34.5-34.5-15.45-34.5-34.5-34.5h0Z"/>
  </g>
  <g>
    <path class="cls-9" d="M735.63,856.48c-17.64,0-32-14.36-32-32s14.36-32,32-32,32,14.35,32,32-14.36,32-32,32Z"/>
    <path d="M735.63,794.98c16.27,0,29.5,13.23,29.5,29.5s-13.23,29.5-29.5,29.5-29.5-13.23-29.5-29.5,13.23-29.5,29.5-29.5M735.63,789.98c-19.05,0-34.5,15.45-34.5,34.5s15.45,34.5,34.5,34.5,34.5-15.45,34.5-34.5-15.45-34.5-34.5-34.5h0Z"/>
  </g>
  <g>
    <path class="cls-10" d="M103.91,658.16c-17.65,0-32-14.35-32-32s14.35-32,32-32,32,14.35,32,32-14.35,32-32,32Z"/>
    <path d="M103.91,596.66c16.27,0,29.5,13.23,29.5,29.5s-13.23,29.5-29.5,29.5-29.5-13.23-29.5-29.5,13.23-29.5,29.5-29.5M103.91,591.66c-19.05,0-34.5,15.45-34.5,34.5s15.45,34.5,34.5,34.5,34.5-15.45,34.5-34.5-15.45-34.5-34.5-34.5h0Z"/>
  </g>
  <g>
    <path d="M103.91,856.48c-17.65,0-32-14.36-32-32s14.35-32,32-32,32,14.35,32,32-14.35,32-32,32Z"/>
    <path d="M103.91,794.98c16.27,0,29.5,13.23,29.5,29.5s-13.23,29.5-29.5,29.5-29.5-13.23-29.5-29.5,13.23-29.5,29.5-29.5M103.91,789.98c-19.05,0-34.5,15.45-34.5,34.5s15.45,34.5,34.5,34.5,34.5-15.45,34.5-34.5-15.45-34.5-34.5-34.5h0Z"/>
  </g>
  <path class="cls-9" d="M533.63,816.23c-.48.77-1.44,1.78-2.64,3.22-2.71,3.36-7.98,8.74-11.33,12.48,4.42,0,4.15,1.68,6.58,1.68,1.34,0,2.74-.24,4.56-3.17.58,0,.92.16,1.2.48-2.26,5.18-3.84,6.38-5.91,6.38-1.34,0-2.93-.48-4.13-1.2-1.54-.96-2.83-1.25-3.65-1.25-.48,0-1.68.77-2.74,2.54-.38-.05-.72-.14-1.1-.29-.29-.05-.53-.29-.67-.62.19-.67,2.02-2.93,2.98-4.03l11.54-12.71c-.47.07-.86.09-1.51.09-1.39,0-3.22-.43-5.38-.43s-3.02.48-4.03,2.69c-.53,0-.96-.05-1.3-.38.82-2.83,2.98-5.95,4.66-5.95,1.34,0,2.78.24,5.09.62,2.26.48,2.93.67,3.79.67.77,0,1.49-.29,2.59-1.54l1.39.72Z"/>
  <path class="cls-10" d="M742.37,811.34c-.29-.29-.29-1.3,0-1.58,2.11.05,4.31.1,5.33.1,1.14,0,3.41-.05,5.38-.1.29.29.29,1.3,0,1.58-3.36.34-4.18.62-4.18,4.9v23.57c0,.91-.43,1.49-1.1,1.49-.77,0-1.39-.43-1.92-1.15l-16.75-21.17c-.82-1.06-1.34-1.58-1.63-1.58-.38,0-.38.72-.38,2.35v14.69c0,4.37.82,4.56,4.18,4.9.29.29.29,1.3,0,1.58-2.02-.05-4.22-.1-5.33-.1s-3.31.05-5.38.1c-.29-.29-.29-1.3,0-1.58,3.36-.34,4.18-.62,4.18-4.9v-20.02c-.29-1.25-1.73-2.93-3.79-3.07-.29-.29-.29-1.3,0-1.58l6.48.1,16.46,20.88c1.39,1.78,2.11,2.64,2.3,2.64.34,0,.34-.53.34-1.44v-15.7c0-4.37-.82-4.56-4.18-4.9Z"/>
  <path d="M98.83,639.69c-2.63-2.62-4.21-7.46-4.21-12.58,0-9.5,4.51-15.17,9.26-15.17,2.59,0,4.6,1.45,5.86,3.12,2.11,2.78,3.26,6.86,3.26,11.62,0,11.28-5.62,15.03-9.31,15.03-1.86,0-3.5-.65-4.87-2.02ZM98.8,627.64c0,4.18.48,12.38,4.94,12.38.86,0,3.22-.43,4.27-4.37.67-2.45.82-5.47.82-9.89,0-6.43-1.3-10.08-2.78-11.33-.58-.53-1.34-.82-2.16-.82-2.16,0-5.09,2.21-5.09,14.02Z"/>
  <path class="cls-10" d="M110.75,837.86c.29.29.29,1.3,0,1.58-2.4-.05-3.57-.1-5.86-.1-2.6,0-4.32.05-6.67.1-.29-.29-.29-1.3,0-1.58,3.36-.14,4.66-.38,4.66-4.37v-15.65c0-1.63-.17-2.78-.96-2.78-.91,0-1.99.29-4.18,1.2-.43-.29-.64-.75-.72-1.3,4.22-1.97,6.75-3.15,9.41-4.8.17,0,.29,0,.29.24-.08.62-.14,3.55-.14,6.43v16.66c0,3.98.82,4.22,4.18,4.37Z"/>
  <line class="cls-5" x1="309.66" y1="232.83" x2="521.61" y2="34.5"/>
  <line class="cls-5" x1="309.66" y1="34.5" x2="521.61" y2="34.5"/>
  <line class="cls-5" x1="309.66" y1="34.5" x2="309.66" y2="232.83"/>
  <line class="cls-5" x1="309.66" y1="427.83" x2="309.66" y2="232.83"/>
  <line class="cls-5" x1="521.61" y1="232.83" x2="309.66" y2="427.83"/>
  <path class="cls-5" d="M309.66,232.83h211.95s-211.95,0-211.95,0Z"/>
  <line class="cls-5" x1="521.61" y1="427.83" x2="309.66" y2="427.83"/>
  <path class="cls-4" d="M556.11,232.83h0c83.92,0,151.94,68.03,151.94,151.94v329.27c0,26.89,4.55,53.58,13.47,78.95h0"/>
  <path class="cls-4" d="M546.23,58.67l28.3,26.31c30.44,28.3,47.74,67.99,47.74,109.56v862.31c0,36.9-13.62,72.51-38.25,99.99l-32.91,36.72"/>
  <g>
    <path class="cls-8" d="M521.61,66.5c-17.65,0-32-14.35-32-32s14.35-32,32-32,32,14.35,32,32-14.36,32-32,32Z"/>
    <path d="M521.61,5c16.27,0,29.5,13.23,29.5,29.5s-13.23,29.5-29.5,29.5-29.5-13.23-29.5-29.5,13.23-29.5,29.5-29.5M521.61,0c-19.05,0-34.5,15.45-34.5,34.5s15.45,34.5,34.5,34.5,34.5-15.45,34.5-34.5S540.67,0,521.61,0h0Z"/>
  </g>
  <g>
    <path class="cls-8" d="M521.61,264.83c-17.65,0-32-14.35-32-32s14.35-32,32-32,32,14.35,32,32-14.36,32-32,32Z"/>
    <path d="M521.61,203.33c16.27,0,29.5,13.23,29.5,29.5s-13.23,29.5-29.5,29.5-29.5-13.23-29.5-29.5,13.23-29.5,29.5-29.5M521.61,198.33c-19.05,0-34.5,15.45-34.5,34.5s15.45,34.5,34.5,34.5,34.5-15.45,34.5-34.5-15.45-34.5-34.5-34.5h0Z"/>
  </g>
  <g>
    <path class="cls-8" d="M521.61,459.83c-17.65,0-32-14.36-32-32s14.35-32,32-32,32,14.36,32,32-14.36,32-32,32Z"/>
    <path d="M521.61,398.33c16.27,0,29.5,13.23,29.5,29.5s-13.23,29.5-29.5,29.5-29.5-13.23-29.5-29.5,13.23-29.5,29.5-29.5M521.61,393.33c-19.05,0-34.5,15.45-34.5,34.5s15.45,34.5,34.5,34.5,34.5-15.45,34.5-34.5-15.45-34.5-34.5-34.5h0Z"/>
  </g>
  <g>
    <path class="cls-8" d="M309.66,66.5c-17.65,0-32-14.35-32-32s14.35-32,32-32,32,14.35,32,32-14.35,32-32,32Z"/>
    <path d="M309.66,5c16.27,0,29.5,13.23,29.5,29.5s-13.23,29.5-29.5,29.5-29.5-13.23-29.5-29.5,13.23-29.5,29.5-29.5M309.66,0c-19.05,0-34.5,15.45-34.5,34.5s15.45,34.5,34.5,34.5,34.5-15.45,34.5-34.5S328.72,0,309.66,0h0Z"/>
  </g>
  <g>
    <path class="cls-8" d="M309.66,264.83c-17.65,0-32-14.35-32-32s14.35-32,32-32,32,14.35,32,32-14.35,32-32,32Z"/>
    <path d="M309.66,203.33c16.27,0,29.5,13.23,29.5,29.5s-13.23,29.5-29.5,29.5-29.5-13.23-29.5-29.5,13.23-29.5,29.5-29.5M309.66,198.33c-19.05,0-34.5,15.45-34.5,34.5s15.45,34.5,34.5,34.5,34.5-15.45,34.5-34.5-15.45-34.5-34.5-34.5h0Z"/>
  </g>
  <g>
    <path class="cls-8" d="M309.66,459.83c-17.65,0-32-14.36-32-32s14.35-32,32-32,32,14.36,32,32-14.35,32-32,32Z"/>
    <path d="M309.66,398.33c16.27,0,29.5,13.23,29.5,29.5s-13.23,29.5-29.5,29.5-29.5-13.23-29.5-29.5,13.23-29.5,29.5-29.5M309.66,393.33c-19.05,0-34.5,15.45-34.5,34.5s15.45,34.5,34.5,34.5,34.5-15.45,34.5-34.5-15.45-34.5-34.5-34.5h0Z"/>
  </g>
  <path class="cls-9" d="M516.86,30.49c-.24-.41-.72-.55-1.34-.55-.98,0-2.57.77-3.14,1.04-.38-.37-.56-.95-.62-1.47,1.68-1.25,5.21-3.24,6.34-3.24,1.2,0,1.75.95,2.54,3.46l1.34,4.22,2.4-3.46c2.36-3.4,3.94-4.22,6.34-4.22,1.1,0,2.4.72,2.4,1.92,0,1.1-.86,2.06-1.54,2.06-.48,0-1.23-.2-1.58-.48-.43-.34-1.06-.48-1.44-.48-.34,0-1.5.18-2.26,1.3l-3.65,5.38,2.59,7.73c.39,1.17.72,1.78,1.15,1.78.53,0,1.15-.38,2.4-1.97.53.09.97.47,1.15.91-1.49,2.5-3.6,3.41-5.28,3.41s-2.13-.77-2.74-2.69l-1.85-5.83-3.34,4.78c-2.1,3.01-3.26,3.74-4.9,3.74-1.1,0-2.79-.58-2.79-1.82,0-1.06.77-1.82,1.82-1.82.48,0,.96.1,1.39.29.38.19.91.29,1.3.29.34,0,.84-.18,1.34-.91l4.49-6.6-1.7-4.73c-.3-.84-.62-1.65-.84-2.02Z"/>
  <path class="cls-9" d="M522.28,443.52c-3.1,4.76-6.91,7.87-9.46,7.87-.82,0-2.93-.43-2.93-2.02,0-1.49,1.2-2.45,2.21-2.45.38,0,1.34.38,1.68.67.29.24,1.2.86,1.68.86.67,0,2.69-2.11,4.66-5.33.57-1.22-.89-12.92-2.35-17.81-.26-.87-.53-1.65-.74-2.02-.24-.41-.72-.55-1.34-.55-.98,0-2.57.77-3.14,1.04-.38-.37-.56-.95-.62-1.47,1.68-1.25,5.21-3.24,6.34-3.24,1.2,0,1.82,1.01,2.5,3.55,1.44,5.93,1.78,10.46,2.06,16.06l.31.14c1.23-1.8,3.7-5.81,3.7-5.81,1.66-2.61,3.62-6.2,3.62-8.3,0-.79-.28-1.78-1.01-2.88-.16-.24-.26-.69-.26-.98,0-1.17.83-1.78,2.23-1.78,1.85,0,2.51.91,2.51,2.28,0,1.69-.58,3.45-1.3,5.12-1.35,3.17-7.21,12.13-8.15,13.68l-2.18,3.36Z"/>
  <line class="cls-5" x1="311.73" y1="1412.81" x2="523.68" y2="1214.48"/>
  <line class="cls-5" x1="311.73" y1="1214.48" x2="523.68" y2="1214.48"/>
  <line class="cls-5" x1="311.73" y1="1214.48" x2="311.73" y2="1412.81"/>
  <line class="cls-5" x1="311.73" y1="1607.81" x2="311.73" y2="1412.81"/>
  <line class="cls-5" x1="523.68" y1="1412.81" x2="311.73" y2="1607.81"/>
  <path class="cls-5" d="M311.73,1412.81h211.95s-211.95,0-211.95,0Z"/>
  <line class="cls-5" x1="523.68" y1="1607.81" x2="311.73" y2="1607.81"/>
  <path class="cls-4" d="M558.18,1412.81h0c82.78,0,149.88-67.1,149.88-149.88v-315.45c0-31,4.54-61.83,13.47-91.51h0"/>
  <g>
    <path class="cls-8" d="M523.68,1246.48c-17.65,0-32-14.35-32-32s14.35-32,32-32,32,14.35,32,32-14.36,32-32,32Z"/>
    <path d="M523.68,1184.98c16.27,0,29.5,13.23,29.5,29.5s-13.23,29.5-29.5,29.5-29.5-13.23-29.5-29.5,13.23-29.5,29.5-29.5M523.68,1179.98c-19.05,0-34.5,15.45-34.5,34.5s15.45,34.5,34.5,34.5,34.5-15.45,34.5-34.5-15.45-34.5-34.5-34.5h0Z"/>
  </g>
  <g>
    <path class="cls-8" d="M523.68,1444.81c-17.65,0-32-14.35-32-32s14.35-32,32-32,32,14.35,32,32-14.36,32-32,32Z"/>
    <path d="M523.68,1383.31c16.27,0,29.5,13.23,29.5,29.5s-13.23,29.5-29.5,29.5-29.5-13.23-29.5-29.5,13.23-29.5,29.5-29.5M523.68,1378.31c-19.05,0-34.5,15.45-34.5,34.5s15.45,34.5,34.5,34.5,34.5-15.45,34.5-34.5-15.45-34.5-34.5-34.5h0Z"/>
  </g>
  <g>
    <path class="cls-8" d="M523.68,1639.81c-17.65,0-32-14.36-32-32s14.35-32,32-32,32,14.36,32,32-14.36,32-32,32Z"/>
    <path d="M523.68,1578.31c16.27,0,29.5,13.23,29.5,29.5s-13.23,29.5-29.5,29.5-29.5-13.23-29.5-29.5,13.23-29.5,29.5-29.5M523.68,1573.31c-19.05,0-34.5,15.45-34.5,34.5s15.45,34.5,34.5,34.5,34.5-15.45,34.5-34.5-15.45-34.5-34.5-34.5h0Z"/>
  </g>
  <g>
    <path class="cls-8" d="M311.73,1246.48c-17.65,0-32-14.36-32-32s14.35-32,32-32,32,14.36,32,32-14.35,32-32,32Z"/>
    <path d="M311.73,1184.98c16.27,0,29.5,13.23,29.5,29.5s-13.23,29.5-29.5,29.5-29.5-13.23-29.5-29.5,13.23-29.5,29.5-29.5M311.73,1179.98c-19.05,0-34.5,15.45-34.5,34.5s15.45,34.5,34.5,34.5,34.5-15.45,34.5-34.5-15.45-34.5-34.5-34.5h0Z"/>
  </g>
  <g>
    <path class="cls-8" d="M311.73,1444.81c-17.65,0-32-14.35-32-32s14.35-32,32-32,32,14.35,32,32-14.35,32-32,32Z"/>
    <path d="M311.73,1383.31c16.27,0,29.5,13.23,29.5,29.5s-13.23,29.5-29.5,29.5-29.5-13.23-29.5-29.5,13.23-29.5,29.5-29.5M311.73,1378.31c-19.05,0-34.5,15.45-34.5,34.5s15.45,34.5,34.5,34.5,34.5-15.45,34.5-34.5-15.45-34.5-34.5-34.5h0Z"/>
  </g>
  <g>
    <path class="cls-8" d="M311.73,1639.81c-17.65,0-32-14.36-32-32s14.35-32,32-32,32,14.36,32,32-14.35,32-32,32Z"/>
    <path d="M311.73,1578.31c16.27,0,29.5,13.23,29.5,29.5s-13.23,29.5-29.5,29.5-29.5-13.23-29.5-29.5,13.23-29.5,29.5-29.5M311.73,1573.31c-19.05,0-34.5,15.45-34.5,34.5s15.45,34.5,34.5,34.5,34.5-15.45,34.5-34.5-15.45-34.5-34.5-34.5h0Z"/>
  </g>
  <path class="cls-9" d="M518.93,1211.47c-.24-.41-.72-.55-1.34-.55-.98,0-2.57.77-3.14,1.04-.38-.37-.56-.95-.62-1.47,1.68-1.25,5.21-3.24,6.34-3.24,1.2,0,1.75.95,2.54,3.46l1.34,4.22,2.4-3.46c2.36-3.4,3.94-4.22,6.34-4.22,1.1,0,2.4.72,2.4,1.92,0,1.1-.86,2.06-1.54,2.06-.48,0-1.23-.2-1.58-.48-.43-.34-1.06-.48-1.44-.48-.34,0-1.5.18-2.26,1.3l-3.65,5.38,2.59,7.73c.39,1.17.72,1.78,1.15,1.78.53,0,1.15-.38,2.4-1.97.53.09.97.47,1.15.91-1.49,2.5-3.6,3.41-5.28,3.41s-2.13-.77-2.74-2.69l-1.85-5.83-3.34,4.78c-2.1,3.01-3.26,3.74-4.9,3.74-1.1,0-2.79-.58-2.79-1.82,0-1.06.77-1.82,1.82-1.82.48,0,.96.1,1.39.29.38.19.91.29,1.3.29.34,0,.84-.18,1.34-.91l4.49-6.6-1.7-4.73c-.3-.84-.62-1.65-.84-2.02Z"/>
  <path class="cls-9" d="M524.34,1620.51c-3.1,4.76-6.91,7.87-9.46,7.87-.82,0-2.93-.43-2.93-2.02,0-1.49,1.2-2.45,2.21-2.45.38,0,1.34.38,1.68.67.29.24,1.2.86,1.68.86.67,0,2.69-2.11,4.66-5.33.57-1.22-.89-12.92-2.35-17.81-.26-.87-.53-1.65-.74-2.02-.24-.41-.72-.55-1.34-.55-.98,0-2.57.77-3.14,1.04-.38-.37-.56-.95-.62-1.47,1.68-1.25,5.21-3.24,6.34-3.24,1.2,0,1.82,1.01,2.5,3.55,1.44,5.93,1.78,10.46,2.06,16.06l.31.14c1.23-1.8,3.7-5.81,3.7-5.81,1.66-2.61,3.62-6.2,3.62-8.3,0-.79-.28-1.78-1.01-2.88-.16-.24-.26-.69-.26-.98,0-1.17.83-1.78,2.23-1.78,1.85,0,2.51.91,2.51,2.28,0,1.69-.58,3.45-1.3,5.12-1.35,3.17-7.21,12.13-8.15,13.68l-2.18,3.36Z"/>
  <line class="cls-7" x1="513.77" y1="409.95" x2="533.59" y2="409.95"/>
  <line class="cls-7" x1="513.77" y1="1198.9" x2="533.59" y2="1198.9"/>
  <path class="cls-4" d="M548.63,1584.85l55.71-51.26c30.88-28.41,48.45-68.46,48.45-110.42v-820.98c0-47.32-22.32-91.86-60.23-120.19l-43.94-32.84"/>
  <path class="cls-5" d="M275.16,34.5h0c-94.58,0-171.25,76.67-171.25,171.25v385.9"/>
  <path class="cls-5" d="M277.23,1412.81h0c-95.72,0-173.32-77.6-173.32-173.32v-380.51"/>
  <path class="cls-5" d="M275.16,232.83h0c-37.19,0-67.34,30.15-67.34,67.34v315.98c0,69.8-28.18,136.65-78.15,185.38h0"/>
  <path class="cls-5" d="M277.23,1214.48h0c-38.33,0-69.41-31.08-69.41-69.41v-307.23c0-70.79-28.11-138.68-78.15-188.74h0"/>
  <path class="cls-4" d="M548.63,1043.29h0c27.93,27.84,43.63,65.66,43.63,105.1v130.26c0,40.99-15.6,80.44-43.63,110.35h0"/>
  <path class="cls-4" d="M548.63,253.64h0c27.93,27.84,43.63,65.66,43.63,105.1v134.26c0,40.99-15.6,80.44-43.63,110.35h0"/>
  <path class="cls-5" d="M556.11,34.5h0c100.21,0,181.36,81.38,181.09,181.58l-1.57,573.9"/>
  <path class="cls-5" d="M558.18,1607.81h0c98.81,0,178.85-80.21,178.65-179.02l-1.19-569.81"/>
  <path class="cls-5" d="M556.11,427.83h0c68.37,0,123.86,55.29,124.1,123.66l.64,181.54c.09,25.74,10.8,50.3,29.59,67.89h0"/>
  <path class="cls-5" d="M558.18,1214.48h0c68.37,0,123.86-55.29,124.1-123.66l.64-177.54c.09-25.74,10.8-50.3,29.59-67.89h0"/>
  <path class="cls-4" d="M704.36,809.76l-18.74-9.13c-29.24-14.25-53.84-36.51-70.94-64.18h0c-14.25-23.06-30.33-44.94-48.09-65.42l-16.95-19.55"/>
</svg>