<?xml version="1.0" encoding="UTF-8"?>
<svg id="Layer_1" data-name="Layer 1" xmlns="http://www.w3.org/2000/svg" viewBox="0 0 839.54 462.33">
  <defs>
    <style>
      .cls-1 {
        stroke-dasharray: 3.9 3.9;
      }

      .cls-1, .cls-2, .cls-3, .cls-4, .cls-5 {
        fill: none;
        stroke: #000;
        stroke-miterlimit: 10;
      }

      .cls-1, .cls-2, .cls-3, .cls-5 {
        stroke-width: 4px;
      }

      .cls-2 {
        stroke-dasharray: 3.93 3.93;
      }

      .cls-6 {
        fill: #0071bc;
      }

      .cls-7 {
        fill: #fff;
      }

      .cls-3 {
        stroke-dasharray: 4.1 4.1;
      }

      .cls-4 {
        stroke-width: 5px;
      }
    </style>
  </defs>
  <g>
    <line class="cls-5" x1="103.91" y1="34.5" x2="102.46" y2="35.88"/>
    <line class="cls-2" x1="99.62" y1="38.59" x2="15.82" y2="118.56"/>
    <line class="cls-5" x1="14.4" y1="119.92" x2="12.96" y2="121.3"/>
    <polygon points="11.38 107.45 15.64 118.74 26.72 123.52 0 133.66 11.38 107.45"/>
  </g>
  <g>
    <line class="cls-5" x1="103.91" y1="232.84" x2="101.91" y2="232.84"/>
    <line class="cls-1" x1="98" y1="232.84" x2="21.86" y2="232.83"/>
    <line class="cls-5" x1="19.91" y1="232.83" x2="17.91" y2="232.83"/>
    <polygon points="26.34 221.73 21.62 232.83 26.33 243.94 0 232.83 26.34 221.73"/>
  </g>
  <g>
    <line class="cls-5" x1="821.63" y1="232.88" x2="819.63" y2="232.88"/>
    <line class="cls-1" x1="815.73" y1="232.88" x2="739.58" y2="232.88"/>
    <line class="cls-5" x1="737.63" y1="232.88" x2="735.63" y2="232.88"/>
    <polygon points="813.2 221.77 817.92 232.88 813.2 243.99 839.54 232.88 813.2 221.77"/>
  </g>
  <g>
    <line class="cls-5" x1="826.58" y1="148" x2="825.14" y2="149.38"/>
    <line class="cls-3" x1="822.17" y1="152.21" x2="740.63" y2="230.03"/>
    <line class="cls-5" x1="739.14" y1="231.45" x2="737.7" y2="232.83"/>
    <polygon points="812.82 145.78 823.9 150.56 828.16 161.85 839.54 135.64 812.82 145.78"/>
  </g>
  <line class="cls-4" x1="103.91" y1="34.5" x2="103.91" y2="232.83"/>
  <line class="cls-4" x1="311.73" y1="232.83" x2="523.68" y2="34.5"/>
  <line class="cls-4" x1="311.73" y1="34.5" x2="523.68" y2="34.5"/>
  <line class="cls-4" x1="311.73" y1="34.5" x2="311.73" y2="232.83"/>
  <line class="cls-4" x1="311.73" y1="427.83" x2="311.73" y2="232.83"/>
  <line class="cls-4" x1="523.68" y1="232.83" x2="311.73" y2="427.83"/>
  <path class="cls-4" d="M311.73,232.83h211.95s-211.95,0-211.95,0Z"/>
  <line class="cls-4" x1="523.68" y1="427.83" x2="311.73" y2="427.83"/>
  <line class="cls-4" x1="735.63" y1="232.83" x2="523.68" y2="427.83"/>
  <line class="cls-4" x1="735.63" y1="232.83" x2="523.68" y2="232.83"/>
  <line class="cls-4" x1="523.68" y1="34.5" x2="735.63" y2="232.83"/>
  <line class="cls-4" x1="103.91" y1="34.5" x2="311.73" y2="34.5"/>
  <line class="cls-4" x1="103.91" y1="232.83" x2="311.73" y2="232.83"/>
  <g>
    <path class="cls-7" d="M523.68,66.5c-17.64,0-32-14.35-32-32s14.36-32,32-32,32,14.35,32,32-14.36,32-32,32Z"/>
    <path d="M523.68,5c16.27,0,29.5,13.23,29.5,29.5s-13.23,29.5-29.5,29.5-29.5-13.23-29.5-29.5,13.23-29.5,29.5-29.5M523.68,0c-19.05,0-34.5,15.45-34.5,34.5s15.45,34.5,34.5,34.5,34.5-15.45,34.5-34.5S542.73,0,523.68,0h0Z"/>
  </g>
  <g>
    <path class="cls-7" d="M523.68,264.83c-17.64,0-32-14.36-32-32s14.36-32,32-32,32,14.35,32,32-14.36,32-32,32Z"/>
    <path d="M523.68,203.33c16.27,0,29.5,13.23,29.5,29.5s-13.23,29.5-29.5,29.5-29.5-13.23-29.5-29.5,13.23-29.5,29.5-29.5M523.68,198.33c-19.05,0-34.5,15.45-34.5,34.5s15.45,34.5,34.5,34.5,34.5-15.45,34.5-34.5-15.45-34.5-34.5-34.5h0Z"/>
  </g>
  <g>
    <path class="cls-7" d="M523.68,459.83c-17.64,0-32-14.36-32-32s14.36-32,32-32,32,14.36,32,32-14.36,32-32,32Z"/>
    <path d="M523.68,398.33c16.27,0,29.5,13.23,29.5,29.5s-13.23,29.5-29.5,29.5-29.5-13.23-29.5-29.5,13.23-29.5,29.5-29.5M523.68,393.33c-19.05,0-34.5,15.45-34.5,34.5s15.45,34.5,34.5,34.5,34.5-15.45,34.5-34.5-15.45-34.5-34.5-34.5h0Z"/>
  </g>
  <g>
    <path d="M311.73,66.5c-17.65,0-32-14.35-32-32s14.35-32,32-32,32,14.35,32,32-14.35,32-32,32Z"/>
    <path d="M311.73,5c16.27,0,29.5,13.23,29.5,29.5s-13.23,29.5-29.5,29.5-29.5-13.23-29.5-29.5,13.23-29.5,29.5-29.5M311.73,0c-19.05,0-34.5,15.45-34.5,34.5s15.45,34.5,34.5,34.5,34.5-15.45,34.5-34.5S330.78,0,311.73,0h0Z"/>
  </g>
  <g>
    <path class="cls-6" d="M311.73,264.83c-17.65,0-32-14.36-32-32s14.35-32,32-32,32,14.35,32,32-14.35,32-32,32Z"/>
    <path d="M311.73,203.33c16.27,0,29.5,13.23,29.5,29.5s-13.23,29.5-29.5,29.5-29.5-13.23-29.5-29.5,13.23-29.5,29.5-29.5M311.73,198.33c-19.05,0-34.5,15.45-34.5,34.5s15.45,34.5,34.5,34.5,34.5-15.45,34.5-34.5-15.45-34.5-34.5-34.5h0Z"/>
  </g>
  <g>
    <path d="M311.73,459.83c-17.65,0-32-14.36-32-32s14.35-32,32-32,32,14.36,32,32-14.35,32-32,32Z"/>
    <path d="M311.73,398.33c16.27,0,29.5,13.23,29.5,29.5s-13.23,29.5-29.5,29.5-29.5-13.23-29.5-29.5,13.23-29.5,29.5-29.5M311.73,393.33c-19.05,0-34.5,15.45-34.5,34.5s15.45,34.5,34.5,34.5,34.5-15.45,34.5-34.5-15.45-34.5-34.5-34.5h0Z"/>
  </g>
  <g>
    <path class="cls-6" d="M735.63,264.83c-17.64,0-32-14.36-32-32s14.36-32,32-32,32,14.35,32,32-14.36,32-32,32Z"/>
    <path d="M735.63,203.33c16.27,0,29.5,13.23,29.5,29.5s-13.23,29.5-29.5,29.5-29.5-13.23-29.5-29.5,13.23-29.5,29.5-29.5M735.63,198.33c-19.05,0-34.5,15.45-34.5,34.5s15.45,34.5,34.5,34.5,34.5-15.45,34.5-34.5-15.45-34.5-34.5-34.5h0Z"/>
  </g>
  <g>
    <path class="cls-7" d="M103.91,66.5c-17.65,0-32-14.35-32-32S86.26,2.5,103.91,2.5s32,14.35,32,32-14.35,32-32,32Z"/>
    <path d="M103.91,5c16.27,0,29.5,13.23,29.5,29.5s-13.23,29.5-29.5,29.5-29.5-13.23-29.5-29.5,13.23-29.5,29.5-29.5M103.91,0c-19.05,0-34.5,15.45-34.5,34.5s15.45,34.5,34.5,34.5,34.5-15.45,34.5-34.5S122.96,0,103.91,0h0Z"/>
  </g>
  <g>
    <path d="M103.91,264.83c-17.65,0-32-14.36-32-32s14.35-32,32-32,32,14.35,32,32-14.35,32-32,32Z"/>
    <path d="M103.91,203.33c16.27,0,29.5,13.23,29.5,29.5s-13.23,29.5-29.5,29.5-29.5-13.23-29.5-29.5,13.23-29.5,29.5-29.5M103.91,198.33c-19.05,0-34.5,15.45-34.5,34.5s15.45,34.5,34.5,34.5,34.5-15.45,34.5-34.5-15.45-34.5-34.5-34.5h0Z"/>
  </g>
  <path d="M518.93,30.49c-.24-.41-.72-.55-1.34-.55-.98,0-2.57.77-3.14,1.04-.38-.37-.56-.95-.62-1.47,1.68-1.25,5.21-3.24,6.34-3.24,1.2,0,1.75.95,2.54,3.46l1.34,4.22,2.4-3.46c2.36-3.4,3.94-4.22,6.34-4.22,1.1,0,2.4.72,2.4,1.92,0,1.1-.86,2.06-1.54,2.06-.48,0-1.23-.2-1.58-.48-.43-.34-1.06-.48-1.44-.48-.34,0-1.5.18-2.26,1.3l-3.65,5.38,2.59,7.73c.39,1.17.72,1.78,1.15,1.78.53,0,1.15-.38,2.4-1.97.53.09.97.47,1.15.91-1.49,2.5-3.6,3.41-5.28,3.41s-2.13-.77-2.74-2.69l-1.85-5.83-3.34,4.78c-2.1,3.01-3.26,3.74-4.9,3.74-1.1,0-2.79-.58-2.79-1.82,0-1.06.77-1.82,1.82-1.82.48,0,.96.1,1.39.29.38.19.91.29,1.3.29.34,0,.84-.18,1.34-.91l4.49-6.6-1.7-4.73c-.3-.84-.62-1.65-.84-2.02Z"/>
  <path d="M533.63,224.57c-.48.77-1.44,1.78-2.64,3.22-2.71,3.36-7.98,8.74-11.33,12.48,4.42,0,4.15,1.68,6.58,1.68,1.34,0,2.74-.24,4.56-3.17.58,0,.92.16,1.2.48-2.26,5.18-3.84,6.38-5.91,6.38-1.34,0-2.93-.48-4.13-1.2-1.54-.96-2.83-1.25-3.65-1.25-.48,0-1.68.77-2.74,2.54-.38-.05-.72-.14-1.1-.29-.29-.05-.53-.29-.67-.62.19-.67,2.02-2.93,2.98-4.03l11.54-12.71c-.47.07-.86.09-1.51.09-1.39,0-3.22-.43-5.38-.43s-3.02.48-4.03,2.69c-.53,0-.96-.05-1.3-.38.82-2.83,2.98-5.95,4.66-5.95,1.34,0,2.78.24,5.09.62,2.26.48,2.93.67,3.79.67.77,0,1.49-.29,2.59-1.54l1.39.72Z"/>
  <path d="M524.34,440.52c-3.1,4.76-6.91,7.87-9.46,7.87-.82,0-2.93-.43-2.93-2.02,0-1.49,1.2-2.45,2.21-2.45.38,0,1.34.38,1.68.67.29.24,1.2.86,1.68.86.67,0,2.69-2.11,4.66-5.33.57-1.22-.89-12.92-2.35-17.81-.26-.87-.53-1.65-.74-2.02-.24-.41-.72-.55-1.34-.55-.98,0-2.57.77-3.14,1.04-.38-.37-.56-.95-.62-1.47,1.68-1.25,5.21-3.24,6.34-3.24,1.2,0,1.82,1.01,2.5,3.55,1.44,5.93,1.78,10.46,2.06,16.06l.31.14c1.23-1.8,3.7-5.81,3.7-5.81,1.66-2.61,3.62-6.2,3.62-8.3,0-.79-.28-1.78-1.01-2.88-.16-.24-.26-.69-.26-.98,0-1.17.83-1.78,2.23-1.78,1.85,0,2.51.91,2.51,2.28,0,1.69-.58,3.45-1.3,5.12-1.35,3.17-7.21,12.13-8.15,13.68l-2.18,3.36Z"/>
  <path class="cls-7" d="M742.37,219.69c-.29-.29-.29-1.3,0-1.58,2.11.05,4.31.1,5.33.1,1.14,0,3.41-.05,5.38-.1.29.29.29,1.3,0,1.58-3.36.34-4.18.62-4.18,4.9v23.57c0,.91-.43,1.49-1.1,1.49-.77,0-1.39-.43-1.92-1.15l-16.75-21.17c-.82-1.06-1.34-1.58-1.63-1.58-.38,0-.38.72-.38,2.35v14.69c0,4.37.82,4.56,4.18,4.9.29.29.29,1.3,0,1.58-2.02-.05-4.22-.1-5.33-.1s-3.31.05-5.38.1c-.29-.29-.29-1.3,0-1.58,3.36-.34,4.18-.62,4.18-4.9v-20.02c-.29-1.25-1.73-2.93-3.79-3.07-.29-.29-.29-1.3,0-1.58l6.48.1,16.46,20.88c1.39,1.78,2.11,2.64,2.3,2.64.34,0,.34-.53.34-1.44v-15.7c0-4.37-.82-4.56-4.18-4.9Z"/>
  <path d="M98.83,48.03c-2.63-2.62-4.21-7.46-4.21-12.58,0-9.5,4.51-15.17,9.26-15.17,2.59,0,4.6,1.45,5.86,3.12,2.11,2.78,3.26,6.86,3.26,11.62,0,11.28-5.62,15.03-9.31,15.03-1.86,0-3.5-.65-4.87-2.02ZM98.8,35.98c0,4.18.48,12.38,4.94,12.38.86,0,3.22-.43,4.27-4.37.67-2.45.82-5.47.82-9.89,0-6.43-1.3-10.08-2.78-11.33-.58-.53-1.34-.82-2.16-.82-2.16,0-5.09,2.21-5.09,14.02Z"/>
  <path class="cls-7" d="M110.75,246.2c.29.29.29,1.3,0,1.58-2.4-.05-3.57-.1-5.86-.1-2.6,0-4.32.05-6.67.1-.29-.29-.29-1.3,0-1.58,3.36-.14,4.66-.38,4.66-4.37v-15.65c0-1.63-.17-2.78-.96-2.78-.91,0-1.99.29-4.18,1.2-.43-.29-.64-.75-.72-1.3,4.22-1.97,6.75-3.15,9.41-4.8.17,0,.29,0,.29.24-.08.62-.14,3.55-.14,6.43v16.66c0,3.98.82,4.22,4.18,4.37Z"/>
  <path class="cls-7" d="M321.19,25.65l-3.31,14.93c-.19.91-.48,2.26-.48,2.69,0,.58.43.67.58.67.48,0,1.39-.77,2.69-2.54.62,0,.85.36,1.1.77-1.25,2.74-3.17,4.66-6.14,4.66-1.63,0-1.97-1.25-1.97-2.16,0-.58.14-1.54.48-2.64l.62-2.02-.1-.1c-2.88,4.27-5.57,6.91-8.11,6.91-4.03,0-4.66-3.79-4.66-6.48,0-7.54,6.96-15.07,12.1-15.07,1.92,0,2.54.14,3.84.29.96.24,2.21.1,3.36.1ZM317.11,27.66c-.91-.58-1.97-.91-2.98-.91-4.42,0-8.4,7.73-8.4,12.82,0,2.69.48,4.61,2.11,4.61,1.54,0,5.23-4.03,7.58-8.35,1.2-3.07,1.68-8.16,1.68-8.16Z"/>
  <path class="cls-7" d="M310.21,233.03l.1.05c1.68-1.97,4.13-4.99,7.44-4.99,4.37,0,5.04,2.45,5.04,5.71,0,4.9-4.4,11.06-8.79,14.07-1.68,1.15-3.54,1.78-5.04,1.78-4.32,0-5.57-2.59-4.9-5.57l4.94-21.94c.24-1.06.34-1.87.34-2.4,0-1.06-.38-1.34-1.01-1.34l-1.49-.1c-.19,0-.24-.1-.24-.24l.14-1.15c1.97-.14,5.42-.77,6.72-1.25.43,0,.58.14.58.48,0,0-.5,1.92-1.2,5.04l-2.64,11.86ZM316.31,230.35c-2.3,0-4.46,2.93-6.72,5.57l-1.63,6.91c-.77,3.28-.49,5.14,1.25,5.14,3.66,0,9.65-6.29,9.65-13.25,0-3.26-1.1-4.37-2.54-4.37Z"/>
  <path class="cls-7" d="M304.73,438.34c-1.13-1.58-1.44-3.74-1.44-5.33,0-4.31,1.6-8.03,3.94-10.54,1.99-2.13,5.08-3.38,7-3.38,5.21,0,5.38,2.74,5.38,4.61,0,1.2-1.2,2.16-2.5,2.16-.82,0-1.3-.77-1.3-1.54,0-.29.12-.8.24-1.01.14-.24.24-.62.24-.91,0-1.58-1.34-1.82-2.02-1.82-3.7,0-7.06,4.22-7.06,11.38,0,2.9.48,3.83,1.2,4.75.69.89,1.6,1.1,2.4,1.1,2.54,0,4.46-1.56,6.34-3.67.43,0,.91.34,1.06.82-2.3,3.22-5.42,5.69-8.88,5.69-1.95,0-3.62-.92-4.61-2.3Z"/>
</svg>