<?xml version="1.0" encoding="UTF-8"?>
<svg id="Layer_1" data-name="Layer 1" xmlns="http://www.w3.org/2000/svg" viewBox="0 0 759.14 547.98">
  <defs>
    <style>
      .cls-1 {
        fill: #0071bc;
      }

      .cls-2 {
        fill: #fff;
      }

      .cls-3 {
        stroke: #000;
        stroke-width: 5px;
      }

      .cls-3, .cls-4 {
        fill: none;
        stroke-miterlimit: 10;
      }

      .cls-4 {
        stroke: #fff;
        stroke-width: 2px;
      }
    </style>
  </defs>
  <line class="cls-3" x1="491.52" y1="513.59" x2="491.52" y2="318.59"/>
  <line class="cls-3" x1="491.84" y1="513.59" x2="279.88" y2="513.59"/>
  <path class="cls-3" d="M277.5,318.48l181.87-168.54c20.66-19.15,47.8-29.79,75.97-29.79h161.93"/>
  <line class="cls-3" x1="697.27" y1="318.54" x2="489.45" y2="318.53"/>
  <line class="cls-3" x1="699.33" y1="120.16" x2="491.52" y2="318.48"/>
  <line class="cls-3" x1="697.27" y1="120.16" x2="697.27" y2="318.48"/>
  <line class="cls-3" x1="65.55" y1="318.48" x2="277.5" y2="120.16"/>
  <line class="cls-3" x1="65.55" y1="120.16" x2="277.5" y2="120.16"/>
  <line class="cls-3" x1="65.55" y1="120.16" x2="65.55" y2="318.48"/>
  <line class="cls-3" x1="65.55" y1="513.48" x2="65.55" y2="318.48"/>
  <line class="cls-3" x1="277.5" y1="318.48" x2="65.55" y2="513.48"/>
  <path class="cls-3" d="M65.55,318.48h211.95s-211.95,0-211.95,0Z"/>
  <line class="cls-3" x1="277.5" y1="513.48" x2="65.55" y2="513.48"/>
  <line class="cls-3" x1="489.45" y1="318.48" x2="277.5" y2="513.48"/>
  <line class="cls-3" x1="489.45" y1="318.48" x2="277.5" y2="318.48"/>
  <line class="cls-3" x1="277.5" y1="120.16" x2="489.45" y2="318.48"/>
  <path class="cls-3" d="M65.55,85.66h0c0-15.47,12.54-28.02,28.02-28.02h575.68c15.47,0,28.02,12.54,28.02,28.02h0"/>
  <path class="cls-3" d="M31.05,318.48h-3.68c-13.74,0-24.87-11.14-24.87-24.87V27.37C2.5,13.64,13.64,2.5,27.37,2.5h704.4c13.74,0,24.87,11.14,24.87,24.87v266.24c0,13.74-11.14,24.87-24.87,24.87h0"/>
  <g>
    <path class="cls-2" d="M277.5,152.16c-17.65,0-32-14.35-32-32s14.35-32,32-32,32,14.35,32,32-14.35,32-32,32Z"/>
    <path d="M277.5,90.66c16.27,0,29.5,13.23,29.5,29.5s-13.23,29.5-29.5,29.5-29.5-13.23-29.5-29.5,13.23-29.5,29.5-29.5M277.5,85.66c-19.05,0-34.5,15.45-34.5,34.5s15.45,34.5,34.5,34.5,34.5-15.45,34.5-34.5-15.45-34.5-34.5-34.5h0Z"/>
  </g>
  <g>
    <path d="M277.5,350.48c-17.65,0-32-14.36-32-32s14.35-32,32-32,32,14.36,32,32-14.35,32-32,32Z"/>
    <path d="M277.5,288.98c16.27,0,29.5,13.23,29.5,29.5s-13.23,29.5-29.5,29.5-29.5-13.23-29.5-29.5,13.23-29.5,29.5-29.5M277.5,283.98c-19.05,0-34.5,15.45-34.5,34.5s15.45,34.5,34.5,34.5,34.5-15.45,34.5-34.5-15.45-34.5-34.5-34.5h0Z"/>
  </g>
  <g>
    <path d="M277.5,545.48c-17.65,0-32-14.36-32-32s14.35-32,32-32,32,14.36,32,32-14.35,32-32,32Z"/>
    <path d="M277.5,483.98c16.27,0,29.5,13.23,29.5,29.5s-13.23,29.5-29.5,29.5-29.5-13.23-29.5-29.5,13.23-29.5,29.5-29.5M277.5,478.98c-19.05,0-34.5,15.45-34.5,34.5s15.45,34.5,34.5,34.5,34.5-15.45,34.5-34.5-15.45-34.5-34.5-34.5h0Z"/>
  </g>
  <g>
    <path d="M65.55,152.16c-17.65,0-32-14.35-32-32s14.35-32,32-32,32,14.35,32,32-14.35,32-32,32Z"/>
    <path d="M65.55,90.66c16.27,0,29.5,13.23,29.5,29.5s-13.23,29.5-29.5,29.5-29.5-13.23-29.5-29.5,13.23-29.5,29.5-29.5M65.55,85.66c-19.05,0-34.5,15.45-34.5,34.5s15.45,34.5,34.5,34.5,34.5-15.45,34.5-34.5-15.45-34.5-34.5-34.5h0Z"/>
  </g>
  <g>
    <path class="cls-1" d="M65.55,350.48c-17.65,0-32-14.36-32-32s14.35-32,32-32,32,14.36,32,32-14.35,32-32,32Z"/>
    <path d="M65.55,288.98c16.27,0,29.5,13.23,29.5,29.5s-13.23,29.5-29.5,29.5-29.5-13.23-29.5-29.5,13.23-29.5,29.5-29.5M65.55,283.98c-19.05,0-34.5,15.45-34.5,34.5s15.45,34.5,34.5,34.5,34.5-15.45,34.5-34.5-15.45-34.5-34.5-34.5h0Z"/>
  </g>
  <g>
    <path class="cls-2" d="M65.55,545.48c-17.65,0-32-14.36-32-32s14.35-32,32-32,32,14.36,32,32-14.35,32-32,32Z"/>
    <path d="M65.55,483.98c16.27,0,29.5,13.23,29.5,29.5s-13.23,29.5-29.5,29.5-29.5-13.23-29.5-29.5,13.23-29.5,29.5-29.5M65.55,478.98c-19.05,0-34.5,15.45-34.5,34.5s15.45,34.5,34.5,34.5,34.5-15.45,34.5-34.5-15.45-34.5-34.5-34.5h0Z"/>
  </g>
  <g>
    <path class="cls-1" d="M489.45,350.48c-17.64,0-32-14.36-32-32s14.36-32,32-32,32,14.35,32,32-14.36,32-32,32Z"/>
    <path d="M489.45,288.98c16.27,0,29.5,13.23,29.5,29.5s-13.23,29.5-29.5,29.5-29.5-13.23-29.5-29.5,13.23-29.5,29.5-29.5M489.45,283.98c-19.05,0-34.5,15.45-34.5,34.5s15.45,34.5,34.5,34.5,34.5-15.45,34.5-34.5-15.45-34.5-34.5-34.5h0Z"/>
  </g>
  <g>
    <path class="cls-2" d="M697.27,152.15c-17.65,0-32-14.35-32-32s14.35-32,32-32,32,14.35,32,32-14.35,32-32,32Z"/>
    <path d="M697.27,90.66c16.27,0,29.5,13.23,29.5,29.5s-13.23,29.5-29.5,29.5-29.5-13.23-29.5-29.5,13.23-29.5,29.5-29.5M697.27,85.66c-19.05,0-34.5,15.45-34.5,34.5s15.45,34.5,34.5,34.5,34.5-15.45,34.5-34.5-15.45-34.5-34.5-34.5h0Z"/>
  </g>
  <g>
    <path d="M697.27,350.48c-17.65,0-32-14.36-32-32s14.35-32,32-32,32,14.35,32,32-14.35,32-32,32Z"/>
    <path d="M697.27,288.98c16.27,0,29.5,13.23,29.5,29.5s-13.23,29.5-29.5,29.5-29.5-13.23-29.5-29.5,13.23-29.5,29.5-29.5M697.27,283.98c-19.05,0-34.5,15.45-34.5,34.5s15.45,34.5,34.5,34.5,34.5-15.45,34.5-34.5-15.45-34.5-34.5-34.5h0Z"/>
  </g>
  <path d="M272.75,116.14c-.24-.41-.72-.55-1.34-.55-.98,0-2.57.77-3.14,1.04-.38-.37-.56-.95-.62-1.47,1.68-1.25,5.21-3.24,6.34-3.24,1.2,0,1.75.95,2.54,3.46l1.34,4.22,2.4-3.46c2.36-3.4,3.94-4.22,6.34-4.22,1.1,0,2.4.72,2.4,1.92,0,1.1-.86,2.06-1.54,2.06-.48,0-1.23-.2-1.58-.48-.43-.34-1.06-.48-1.44-.48-.34,0-1.5.18-2.26,1.3l-3.65,5.38,2.59,7.73c.39,1.17.72,1.78,1.15,1.78.53,0,1.15-.38,2.4-1.97.53.09.97.47,1.15.91-1.49,2.5-3.6,3.41-5.28,3.41s-2.13-.77-2.74-2.69l-1.85-5.83-3.34,4.78c-2.1,3.01-3.26,3.74-4.9,3.74-1.1,0-2.79-.58-2.79-1.82,0-1.06.77-1.82,1.82-1.82.48,0,.96.1,1.39.29.38.19.91.29,1.3.29.34,0,.84-.18,1.34-.91l4.49-6.6-1.7-4.73c-.3-.84-.62-1.65-.84-2.02Z"/>
  <path class="cls-2" d="M278.16,530.18c-3.1,4.76-6.91,7.87-9.46,7.87-.82,0-2.93-.43-2.93-2.02,0-1.49,1.2-2.45,2.21-2.45.38,0,1.34.38,1.68.67.29.24,1.2.86,1.68.86.67,0,2.69-2.11,4.66-5.33.57-1.22-.89-12.92-2.35-17.81-.26-.87-.53-1.65-.74-2.02-.24-.41-.72-.55-1.34-.55-.98,0-2.57.77-3.14,1.04-.38-.37-.56-.95-.62-1.47,1.68-1.25,5.21-3.24,6.34-3.24,1.2,0,1.82,1.01,2.5,3.55,1.44,5.93,1.78,10.46,2.06,16.06l.31.14c1.23-1.8,3.7-5.81,3.7-5.81,1.66-2.61,3.62-6.2,3.62-8.3,0-.79-.28-1.78-1.01-2.88-.16-.24-.26-.69-.26-.98,0-1.17.83-1.78,2.23-1.78,1.85,0,2.51.91,2.51,2.28,0,1.69-.58,3.45-1.3,5.12-1.35,3.17-7.21,12.13-8.15,13.68l-2.18,3.36Z"/>
  <path class="cls-2" d="M496.19,305.34c-.29-.29-.29-1.3,0-1.58,2.11.05,4.31.1,5.33.1,1.14,0,3.41-.05,5.38-.1.29.29.29,1.3,0,1.58-3.36.34-4.18.62-4.18,4.9v23.57c0,.91-.43,1.49-1.1,1.49-.77,0-1.39-.43-1.92-1.15l-16.75-21.17c-.82-1.06-1.34-1.58-1.63-1.58-.38,0-.38.72-.38,2.35v14.69c0,4.37.82,4.56,4.18,4.9.29.29.29,1.3,0,1.58-2.02-.05-4.22-.1-5.33-.1s-3.31.05-5.38.1c-.29-.29-.29-1.3,0-1.58,3.36-.34,4.18-.62,4.18-4.9v-20.02c-.29-1.25-1.73-2.93-3.79-3.07-.29-.29-.29-1.3,0-1.58l6.48.1,16.46,20.88c1.39,1.78,2.11,2.64,2.3,2.64.34,0,.34-.53.34-1.44v-15.7c0-4.37-.82-4.56-4.18-4.9Z"/>
  <path d="M692.18,133.69c-2.63-2.62-4.21-7.46-4.21-12.58,0-9.5,4.51-15.17,9.26-15.17,2.59,0,4.6,1.45,5.86,3.12,2.11,2.78,3.26,6.86,3.26,11.62,0,11.28-5.62,15.03-9.31,15.03-1.86,0-3.5-.65-4.87-2.02ZM692.16,121.64c0,4.18.48,12.38,4.94,12.38.86,0,3.22-.43,4.27-4.37.67-2.45.82-5.47.82-9.89,0-6.43-1.3-10.08-2.78-11.33-.58-.53-1.34-.82-2.16-.82-2.16,0-5.09,2.21-5.09,14.02Z"/>
  <path class="cls-2" d="M704.11,331.86c.29.29.29,1.3,0,1.58-2.4-.05-3.57-.1-5.86-.1-2.6,0-4.32.05-6.67.1-.29-.29-.29-1.3,0-1.58,3.36-.14,4.66-.38,4.66-4.37v-15.65c0-1.63-.17-2.78-.96-2.78-.91,0-1.99.29-4.18,1.2-.43-.29-.64-.75-.72-1.3,4.22-1.97,6.75-3.15,9.41-4.8.17,0,.29,0,.29.24-.08.62-.14,3.55-.14,6.43v16.66c0,3.98.82,4.22,4.18,4.37Z"/>
  <line class="cls-4" x1="269.97" y1="498.16" x2="289.8" y2="498.16"/>
  <g>
    <path class="cls-2" d="M491.52,545.48c-17.64,0-32-14.36-32-32s14.36-32,32-32,32,14.36,32,32-14.36,32-32,32Z"/>
    <path d="M491.52,483.98c16.27,0,29.5,13.23,29.5,29.5s-13.23,29.5-29.5,29.5-29.5-13.23-29.5-29.5,13.23-29.5,29.5-29.5M491.52,478.98c-19.05,0-34.5,15.45-34.5,34.5s15.45,34.5,34.5,34.5,34.5-15.45,34.5-34.5-15.45-34.5-34.5-34.5h0Z"/>
  </g>
  <path d="M492.18,526.18c-3.1,4.76-6.91,7.87-9.46,7.87-.82,0-2.93-.43-2.93-2.02,0-1.49,1.2-2.45,2.21-2.45.38,0,1.34.38,1.68.67.29.24,1.2.86,1.68.86.67,0,2.69-2.11,4.66-5.33.57-1.22-.89-12.92-2.35-17.81-.26-.87-.53-1.65-.74-2.02-.24-.41-.72-.55-1.34-.55-.98,0-2.57.77-3.14,1.04-.38-.37-.56-.95-.62-1.47,1.68-1.25,5.21-3.24,6.34-3.24,1.2,0,1.82,1.01,2.5,3.55,1.44,5.93,1.78,10.46,2.06,16.06l.31.14c1.23-1.8,3.7-5.81,3.7-5.81,1.66-2.61,3.62-6.2,3.62-8.3,0-.79-.28-1.78-1.01-2.88-.16-.24-.26-.69-.26-.98,0-1.17.83-1.78,2.23-1.78,1.85,0,2.51.91,2.51,2.28,0,1.69-.58,3.45-1.3,5.12-1.35,3.17-7.21,12.13-8.15,13.68l-2.18,3.36Z"/>
</svg>