<?xml version="1.0" encoding="UTF-8"?>
<svg id="Layer_1" data-name="Layer 1" xmlns="http://www.w3.org/2000/svg" viewBox="0 0 1324.18 532.73">
  <defs>
    <style>
      .cls-1 {
        fill: #ccc;
      }

      .cls-2 {
        fill: #0071bc;
      }

      .cls-3 {
        fill: #fff;
      }

      .cls-4 {
        fill: none;
        stroke: #000;
        stroke-miterlimit: 10;
        stroke-width: 5px;
      }
    </style>
  </defs>
  <path class="cls-4" d="M450.14,301.57h211.95s-211.95,0-211.95,0Z"/>
  <path class="cls-4" d="M448.32,303.29l209.64-198.39-209.64,198.39Z"/>
  <path class="cls-4" d="M242.32,301.57h211.95s-211.95,0-211.95,0Z"/>
  <path class="cls-4" d="M34.44,301.57h211.95s-211.95,0-211.95,0Z"/>
  <path class="cls-4" d="M34.44,301.57l211.95,196.66L34.44,301.57Z"/>
  <line class="cls-4" x1="1289.68" y1="303.29" x2="1081.86" y2="303.28"/>
  <line class="cls-4" x1="1291.74" y1="104.91" x2="1083.92" y2="303.23"/>
  <line class="cls-4" x1="1289.68" y1="104.91" x2="1289.68" y2="303.23"/>
  <line class="cls-4" x1="657.96" y1="104.91" x2="869.91" y2="104.91"/>
  <line class="cls-4" x1="657.96" y1="104.91" x2="657.96" y2="303.23"/>
  <path class="cls-4" d="M657.96,303.23h211.95s-211.95,0-211.95,0Z"/>
  <line class="cls-4" x1="869.91" y1="498.23" x2="242.32" y2="498.23"/>
  <line class="cls-4" x1="1081.86" y1="303.23" x2="869.91" y2="498.23"/>
  <line class="cls-4" x1="1081.86" y1="303.23" x2="869.91" y2="303.23"/>
  <line class="cls-4" x1="869.91" y1="104.91" x2="1081.86" y2="303.23"/>
  <path class="cls-4" d="M34.5,267.07l-1.65-235.43c-.09-12.84,10.26-23.31,23.1-23.37L1266.36,2.5c12.86-.06,23.32,10.35,23.32,23.21v44.7"/>
  <path class="cls-4" d="M1081.86,271.89l-1.82-202.33c-.14-15.05-12.37-27.18-27.42-27.18H359.99c-14.2,0-27.93,5.07-38.73,14.29L34.5,301.57"/>
  <g>
    <path class="cls-1" d="M869.91,136.91c-17.64,0-32-14.35-32-32s14.36-32,32-32,32,14.35,32,32-14.36,32-32,32Z"/>
    <path d="M869.91,75.41c16.27,0,29.5,13.23,29.5,29.5s-13.23,29.5-29.5,29.5-29.5-13.23-29.5-29.5,13.23-29.5,29.5-29.5M869.91,70.41c-19.05,0-34.5,15.45-34.5,34.5s15.45,34.5,34.5,34.5,34.5-15.45,34.5-34.5-15.45-34.5-34.5-34.5h0Z"/>
  </g>
  <g>
    <path class="cls-1" d="M869.91,335.23c-17.64,0-32-14.36-32-32s14.36-32,32-32,32,14.35,32,32-14.36,32-32,32Z"/>
    <path d="M869.91,273.73c16.27,0,29.5,13.23,29.5,29.5s-13.23,29.5-29.5,29.5-29.5-13.23-29.5-29.5,13.23-29.5,29.5-29.5M869.91,268.73c-19.05,0-34.5,15.45-34.5,34.5s15.45,34.5,34.5,34.5,34.5-15.45,34.5-34.5-15.45-34.5-34.5-34.5h0Z"/>
  </g>
  <g>
    <path class="cls-1" d="M869.91,530.23c-17.64,0-32-14.36-32-32s14.36-32,32-32,32,14.36,32,32-14.36,32-32,32Z"/>
    <path d="M869.91,468.73c16.27,0,29.5,13.23,29.5,29.5s-13.23,29.5-29.5,29.5-29.5-13.23-29.5-29.5,13.23-29.5,29.5-29.5M869.91,463.73c-19.05,0-34.5,15.45-34.5,34.5s15.45,34.5,34.5,34.5,34.5-15.45,34.5-34.5-15.45-34.5-34.5-34.5h0Z"/>
  </g>
  <g>
    <path class="cls-1" d="M657.96,136.91c-17.65,0-32-14.35-32-32s14.35-32,32-32,32,14.35,32,32-14.35,32-32,32Z"/>
    <path d="M657.96,75.41c16.27,0,29.5,13.23,29.5,29.5s-13.23,29.5-29.5,29.5-29.5-13.23-29.5-29.5,13.23-29.5,29.5-29.5M657.96,70.41c-19.05,0-34.5,15.45-34.5,34.5s15.45,34.5,34.5,34.5,34.5-15.45,34.5-34.5-15.45-34.5-34.5-34.5h0Z"/>
  </g>
  <g>
    <path class="cls-1" d="M657.96,335.23c-17.65,0-32-14.36-32-32s14.35-32,32-32,32,14.35,32,32-14.35,32-32,32Z"/>
    <path d="M657.96,273.73c16.27,0,29.5,13.23,29.5,29.5s-13.23,29.5-29.5,29.5-29.5-13.23-29.5-29.5,13.23-29.5,29.5-29.5M657.96,268.73c-19.05,0-34.5,15.45-34.5,34.5s15.45,34.5,34.5,34.5,34.5-15.45,34.5-34.5-15.45-34.5-34.5-34.5h0Z"/>
  </g>
  <g>
    <path class="cls-2" d="M1081.86,335.23c-17.64,0-32-14.36-32-32s14.36-32,32-32,32,14.35,32,32-14.36,32-32,32Z"/>
    <path d="M1081.86,273.73c16.27,0,29.5,13.23,29.5,29.5s-13.23,29.5-29.5,29.5-29.5-13.23-29.5-29.5,13.23-29.5,29.5-29.5M1081.86,268.73c-19.05,0-34.5,15.45-34.5,34.5s15.45,34.5,34.5,34.5,34.5-15.45,34.5-34.5-15.45-34.5-34.5-34.5h0Z"/>
  </g>
  <g>
    <path class="cls-3" d="M1289.68,136.91c-17.65,0-32-14.35-32-32s14.35-32,32-32,32,14.35,32,32-14.35,32-32,32Z"/>
    <path d="M1289.68,75.41c16.27,0,29.5,13.23,29.5,29.5s-13.23,29.5-29.5,29.5-29.5-13.23-29.5-29.5,13.23-29.5,29.5-29.5M1289.68,70.41c-19.05,0-34.5,15.45-34.5,34.5s15.45,34.5,34.5,34.5,34.5-15.45,34.5-34.5-15.45-34.5-34.5-34.5h0Z"/>
  </g>
  <g>
    <path d="M1289.68,335.23c-17.64,0-32-14.36-32-32s14.36-32,32-32,32,14.36,32,32-14.36,32-32,32Z"/>
    <path d="M1289.68,273.73c16.27,0,29.5,13.23,29.5,29.5s-13.23,29.5-29.5,29.5-29.5-13.23-29.5-29.5,13.23-29.5,29.5-29.5M1289.68,268.73c-19.05,0-34.5,15.45-34.5,34.5s15.45,34.5,34.5,34.5,34.5-15.45,34.5-34.5-15.45-34.5-34.5-34.5h0Z"/>
  </g>
  <path class="cls-2" d="M861.99,115.25l-2.02-11.71c-.37-2.13-.65-2.93-1.1-2.93-.91,0-2.02,1.02-3.36,2.32-.54-.07-.89-.37-1.02-.87,1.68-2.56,4.46-5.39,6.06-5.39,1.78,0,2.31,1.78,3.02,6.24l1.63,10.23.12.07c1.13-1.73,4.27-7.44,6.26-12.07.77-.38,1.56-.55,2.35-.58.34.84.75,2.44,1.2,4.27.62,2.6,1.27,5.79,1.68,8.3l.36.1c.63-.69,1.4-1.61,2.15-2.62,1.82-2.47,3.07-6.14,3.07-8.3,0-.79-.28-1.78-1.01-2.88-.16-.24-.26-.69-.26-.98,0-1.17.83-1.78,2.23-1.78,1.85,0,2.52.91,2.52,2.28,0,1.69-.59,3.45-1.3,5.12-1.35,3.17-3.05,6.13-4.09,7.61-.69.98-2.21,3.14-3.6,4.87-.96,1.2-1.66,1.78-2.21,1.78-.42,0-.77-.48-1.1-2.8-.47-3.21-1.2-7.09-1.9-10.16l-.29.05c-1.66,3.6-4.31,8.23-6.09,11.04-.75,1.19-1.63,1.87-2,1.87-.43,0-.88-.65-1.3-3.07Z"/>
  <path class="cls-2" d="M870.57,509.93c-3.1,4.76-6.91,7.87-9.46,7.87-.82,0-2.93-.43-2.93-2.02,0-1.49,1.2-2.45,2.21-2.45.38,0,1.34.38,1.68.67.29.24,1.2.86,1.68.86.67,0,2.69-2.11,4.66-5.33.57-1.22-.89-12.92-2.35-17.81-.26-.87-.53-1.65-.74-2.02-.24-.41-.72-.55-1.34-.55-.98,0-2.57.77-3.14,1.04-.38-.37-.56-.95-.62-1.47,1.68-1.25,5.21-3.24,6.34-3.24,1.2,0,1.82,1.01,2.5,3.55,1.44,5.93,1.78,10.46,2.06,16.06l.31.14c1.23-1.8,3.7-5.81,3.7-5.81,1.66-2.61,3.62-6.2,3.62-8.3,0-.79-.28-1.78-1.01-2.88-.16-.24-.26-.69-.26-.98,0-1.17.83-1.78,2.23-1.78,1.85,0,2.51.91,2.51,2.28,0,1.69-.58,3.45-1.3,5.12-1.35,3.17-7.21,12.13-8.15,13.68l-2.18,3.36Z"/>
  <path class="cls-3" d="M1088.6,290.1c-.29-.29-.29-1.3,0-1.58,2.11.05,4.31.1,5.33.1,1.14,0,3.41-.05,5.38-.1.29.29.29,1.3,0,1.58-3.36.34-4.18.62-4.18,4.9v23.57c0,.91-.43,1.49-1.1,1.49-.77,0-1.39-.43-1.92-1.15l-16.75-21.17c-.82-1.06-1.34-1.58-1.63-1.58-.38,0-.38.72-.38,2.35v14.69c0,4.37.82,4.56,4.18,4.9.29.29.29,1.3,0,1.58-2.02-.05-4.22-.1-5.33-.1s-3.31.05-5.38.1c-.29-.29-.29-1.3,0-1.58,3.36-.34,4.18-.62,4.18-4.9v-20.02c-.29-1.25-1.73-2.93-3.79-3.07-.29-.29-.29-1.3,0-1.58l6.48.1,16.46,20.88c1.39,1.78,2.11,2.64,2.3,2.64.34,0,.34-.53.34-1.44v-15.7c0-4.37-.82-4.56-4.18-4.9Z"/>
  <path d="M1284.59,118.44c-2.63-2.62-4.21-7.46-4.21-12.58,0-9.5,4.51-15.17,9.26-15.17,2.59,0,4.6,1.45,5.86,3.12,2.11,2.78,3.26,6.86,3.26,11.62,0,11.28-5.62,15.03-9.31,15.03-1.86,0-3.5-.65-4.87-2.02ZM1284.56,106.39c0,4.18.48,12.38,4.94,12.38.86,0,3.22-.43,4.27-4.37.67-2.45.82-5.47.82-9.89,0-6.43-1.3-10.08-2.78-11.33-.58-.53-1.34-.82-2.16-.82-2.16,0-5.09,2.21-5.09,14.02Z"/>
  <path class="cls-3" d="M1296.52,316.61c.29.29.29,1.3,0,1.58-2.4-.05-3.57-.1-5.86-.1-2.6,0-4.32.05-6.67.1-.29-.29-.29-1.3,0-1.58,3.36-.14,4.66-.38,4.66-4.37v-15.65c0-1.63-.17-2.78-.96-2.78-.91,0-1.99.29-4.18,1.2-.43-.29-.64-.75-.72-1.3,4.22-1.97,6.75-3.15,9.41-4.8.17,0,.29,0,.29.24-.08.62-.14,3.55-.14,6.43v16.66c0,3.98.82,4.22,4.18,4.37Z"/>
  <path class="cls-2" d="M866.99,298.23c-.24-.41-.72-.55-1.34-.55-.98,0-2.57.77-3.14,1.04-.38-.37-.56-.95-.62-1.47,1.68-1.25,5.21-3.24,6.34-3.24,1.2,0,1.75.95,2.54,3.46l1.34,4.22,2.4-3.46c2.36-3.4,3.94-4.22,6.34-4.22,1.1,0,2.4.72,2.4,1.92,0,1.1-.86,2.06-1.54,2.06-.48,0-1.23-.2-1.58-.48-.43-.34-1.06-.48-1.44-.48-.34,0-1.5.18-2.26,1.3l-3.65,5.38,2.59,7.73c.39,1.17.72,1.78,1.15,1.78.53,0,1.15-.38,2.4-1.97.53.09.97.47,1.15.91-1.49,2.5-3.6,3.41-5.28,3.41s-2.13-.77-2.74-2.69l-1.85-5.83-3.34,4.78c-2.1,3.01-3.26,3.74-4.9,3.74-1.1,0-2.79-.58-2.79-1.82,0-1.06.77-1.82,1.82-1.82.48,0,.96.1,1.39.29.38.19.91.29,1.3.29.34,0,.84-.18,1.34-.91l4.49-6.6-1.7-4.73c-.3-.84-.62-1.65-.84-2.02Z"/>
  <g>
    <path class="cls-1" d="M450.14,333.57c-17.64,0-32-14.36-32-32s14.36-32,32-32,32,14.36,32,32-14.36,32-32,32Z"/>
    <path d="M450.14,272.07c16.27,0,29.5,13.23,29.5,29.5s-13.23,29.5-29.5,29.5-29.5-13.23-29.5-29.5,13.23-29.5,29.5-29.5M450.14,267.07c-19.05,0-34.5,15.45-34.5,34.5s15.45,34.5,34.5,34.5,34.5-15.45,34.5-34.5-15.45-34.5-34.5-34.5h0Z"/>
  </g>
  <line class="cls-4" x1="242.32" y1="498.23" x2="242.32" y2="303.23"/>
  <g>
    <path class="cls-1" d="M242.32,335.23c-17.64,0-32-14.36-32-32s14.36-32,32-32,32,14.35,32,32-14.36,32-32,32Z"/>
    <path d="M242.32,273.73c16.27,0,29.5,13.23,29.5,29.5s-13.23,29.5-29.5,29.5-29.5-13.23-29.5-29.5,13.23-29.5,29.5-29.5M242.32,268.73c-19.05,0-34.5,15.45-34.5,34.5s15.45,34.5,34.5,34.5,34.5-15.45,34.5-34.5-15.45-34.5-34.5-34.5h0Z"/>
  </g>
  <g>
    <path class="cls-1" d="M242.32,530.23c-17.64,0-32-14.36-32-32s14.36-32,32-32,32,14.36,32,32-14.36,32-32,32Z"/>
    <path d="M242.32,468.73c16.27,0,29.5,13.23,29.5,29.5s-13.23,29.5-29.5,29.5-29.5-13.23-29.5-29.5,13.23-29.5,29.5-29.5M242.32,463.73c-19.05,0-34.5,15.45-34.5,34.5s15.45,34.5,34.5,34.5,34.5-15.45,34.5-34.5-15.45-34.5-34.5-34.5h0Z"/>
  </g>
  <g>
    <path class="cls-1" d="M34.5,333.57c-17.64,0-32-14.36-32-32s14.36-32,32-32,32,14.36,32,32-14.36,32-32,32Z"/>
    <path d="M34.5,272.07c16.27,0,29.5,13.23,29.5,29.5s-13.23,29.5-29.5,29.5-29.5-13.23-29.5-29.5,13.23-29.5,29.5-29.5M34.5,267.07c-19.05,0-34.5,15.45-34.5,34.5s15.45,34.5,34.5,34.5,34.5-15.45,34.5-34.5-15.45-34.5-34.5-34.5h0Z"/>
  </g>
  <path class="cls-2" d="M44.8,292.23c-.48.77-1.44,1.78-2.64,3.22-2.71,3.36-7.98,8.74-11.33,12.48,4.42,0,4.15,1.68,6.58,1.68,1.34,0,2.74-.24,4.56-3.17.58,0,.92.16,1.2.48-2.26,5.18-3.84,6.38-5.91,6.38-1.34,0-2.93-.48-4.13-1.2-1.54-.96-2.83-1.25-3.65-1.25-.48,0-1.68.77-2.74,2.54-.38-.05-.72-.14-1.1-.29-.29-.05-.53-.29-.67-.62.19-.67,2.02-2.93,2.98-4.03l11.54-12.71c-.47.07-.86.09-1.51.09-1.39,0-3.22-.43-5.38-.43s-3.02.48-4.03,2.69c-.53,0-.96-.05-1.3-.38.82-2.83,2.98-5.95,4.66-5.95,1.34,0,2.78.24,5.09.62,2.26.48,2.93.67,3.79.67.77,0,1.49-.29,2.59-1.54l1.39.72Z"/>
</svg>