<?xml version="1.0" encoding="UTF-8"?>
<svg id="Layer_1" data-name="Layer 1" xmlns="http://www.w3.org/2000/svg" viewBox="0 0 810.85 1156.16">
  <defs>
    <style>
      .cls-1 {
        fill: #662d91;
        opacity: .25;
      }

      .cls-2 {
        fill: #ccc;
      }

      .cls-3 {
        fill: #0071bc;
      }

      .cls-4 {
        fill: #fff;
      }

      .cls-5 {
        fill: none;
        stroke: #000;
        stroke-miterlimit: 10;
        stroke-width: 5px;
      }
    </style>
  </defs>
  <rect class="cls-1" x="197.26" y="591.66" width="382.84" height="531.33" rx="53.88" ry="53.88"/>
  <rect class="cls-1" x="195.3" width="382.84" height="531.33" rx="53.88" ry="53.88"/>
  <path class="cls-5" d="M492.8,1055.56l194.13-184.72c11.25-10.7,17.61-25.55,17.6-41.08l-.09-139.43"/>
  <path class="cls-5" d="M492.7,67.34l193.77,178.28c11.59,10.66,18.22,25.67,18.29,41.42l1.75,371.98"/>
  <path class="cls-5" d="M706.51,659.02l-87.93-80.89c-11.52-10.59-18.14-25.48-18.29-41.13l-1.48-149.31c-.15-15.65-6.78-30.53-18.29-41.13l-87.93-80.89"/>
  <path class="cls-5" d="M492.7,857.37l-88.07-82.43c-11.44-10.71-17.94-25.69-17.94-41.36v-150.17c0-15.79-6.59-30.87-18.19-41.59l-87.76-81.16"/>
  <line class="cls-5" x1="72.93" y1="658.99" x2="72.93" y2="857.32"/>
  <line class="cls-5" x1="280.75" y1="857.32" x2="492.7" y2="658.99"/>
  <line class="cls-5" x1="280.75" y1="658.99" x2="492.7" y2="658.99"/>
  <line class="cls-5" x1="280.75" y1="658.99" x2="280.75" y2="857.32"/>
  <line class="cls-5" x1="280.75" y1="1052.32" x2="280.75" y2="857.32"/>
  <line class="cls-5" x1="492.7" y1="857.32" x2="280.75" y2="1052.32"/>
  <path class="cls-5" d="M280.75,857.32h211.95s-211.95,0-211.95,0Z"/>
  <line class="cls-5" x1="492.7" y1="1052.32" x2="280.75" y2="1052.32"/>
  <line class="cls-5" x1="704.44" y1="655.84" x2="492.7" y2="857.32"/>
  <line class="cls-5" x1="492.7" y1="658.99" x2="704.65" y2="658.99"/>
  <line class="cls-5" x1="72.93" y1="658.99" x2="280.75" y2="658.99"/>
  <line class="cls-5" x1="72.93" y1="857.32" x2="280.75" y2="857.32"/>
  <g>
    <path class="cls-2" d="M492.7,690.99c-17.64,0-32-14.35-32-32s14.36-32,32-32,32,14.35,32,32-14.36,32-32,32Z"/>
    <path d="M492.7,629.49c16.27,0,29.5,13.23,29.5,29.5s-13.23,29.5-29.5,29.5-29.5-13.23-29.5-29.5,13.23-29.5,29.5-29.5M492.7,624.49c-19.05,0-34.5,15.45-34.5,34.5s15.45,34.5,34.5,34.5,34.5-15.45,34.5-34.5-15.45-34.5-34.5-34.5h0Z"/>
  </g>
  <g>
    <path class="cls-2" d="M492.7,889.32c-17.64,0-32-14.36-32-32s14.36-32,32-32,32,14.36,32,32-14.36,32-32,32Z"/>
    <path d="M492.7,827.82c16.27,0,29.5,13.23,29.5,29.5s-13.23,29.5-29.5,29.5-29.5-13.23-29.5-29.5,13.23-29.5,29.5-29.5M492.7,822.82c-19.05,0-34.5,15.45-34.5,34.5s15.45,34.5,34.5,34.5,34.5-15.45,34.5-34.5-15.45-34.5-34.5-34.5h0Z"/>
  </g>
  <g>
    <path class="cls-2" d="M492.7,1084.32c-17.64,0-32-14.36-32-32s14.36-32,32-32,32,14.36,32,32-14.36,32-32,32Z"/>
    <path d="M492.7,1022.82c16.27,0,29.5,13.23,29.5,29.5s-13.23,29.5-29.5,29.5-29.5-13.23-29.5-29.5,13.23-29.5,29.5-29.5M492.7,1017.82c-19.05,0-34.5,15.45-34.5,34.5s15.45,34.5,34.5,34.5,34.5-15.45,34.5-34.5-15.45-34.5-34.5-34.5h0Z"/>
  </g>
  <g>
    <path class="cls-2" d="M280.75,690.99c-17.65,0-32-14.35-32-32s14.35-32,32-32,32,14.35,32,32-14.35,32-32,32Z"/>
    <path d="M280.75,629.49c16.27,0,29.5,13.23,29.5,29.5s-13.23,29.5-29.5,29.5-29.5-13.23-29.5-29.5,13.23-29.5,29.5-29.5M280.75,624.49c-19.05,0-34.5,15.45-34.5,34.5s15.45,34.5,34.5,34.5,34.5-15.45,34.5-34.5-15.45-34.5-34.5-34.5h0Z"/>
  </g>
  <g>
    <path class="cls-2" d="M280.75,889.32c-17.65,0-32-14.36-32-32s14.35-32,32-32,32,14.36,32,32-14.35,32-32,32Z"/>
    <path d="M280.75,827.82c16.27,0,29.5,13.23,29.5,29.5s-13.23,29.5-29.5,29.5-29.5-13.23-29.5-29.5,13.23-29.5,29.5-29.5M280.75,822.82c-19.05,0-34.5,15.45-34.5,34.5s15.45,34.5,34.5,34.5,34.5-15.45,34.5-34.5-15.45-34.5-34.5-34.5h0Z"/>
  </g>
  <g>
    <path class="cls-2" d="M280.75,1084.32c-17.65,0-32-14.36-32-32s14.35-32,32-32,32,14.36,32,32-14.35,32-32,32Z"/>
    <path d="M280.75,1022.82c16.27,0,29.5,13.23,29.5,29.5s-13.23,29.5-29.5,29.5-29.5-13.23-29.5-29.5,13.23-29.5,29.5-29.5M280.75,1017.82c-19.05,0-34.5,15.45-34.5,34.5s15.45,34.5,34.5,34.5,34.5-15.45,34.5-34.5-15.45-34.5-34.5-34.5h0Z"/>
  </g>
  <g>
    <path class="cls-3" d="M704.44,690.84c-17.64,0-32-14.35-32-32s14.36-32,32-32,32,14.35,32,32-14.36,32-32,32Z"/>
    <path d="M704.44,629.34c16.27,0,29.5,13.23,29.5,29.5s-13.23,29.5-29.5,29.5-29.5-13.23-29.5-29.5,13.23-29.5,29.5-29.5M704.44,624.34c-19.05,0-34.5,15.45-34.5,34.5s15.45,34.5,34.5,34.5,34.5-15.45,34.5-34.5-15.45-34.5-34.5-34.5h0Z"/>
  </g>
  <g>
    <path class="cls-4" d="M72.93,690.99c-17.65,0-32-14.35-32-32s14.35-32,32-32,32,14.35,32,32-14.35,32-32,32Z"/>
    <path d="M72.93,629.49c16.27,0,29.5,13.23,29.5,29.5s-13.23,29.5-29.5,29.5-29.5-13.23-29.5-29.5,13.23-29.5,29.5-29.5M72.93,624.49c-19.05,0-34.5,15.45-34.5,34.5s15.45,34.5,34.5,34.5,34.5-15.45,34.5-34.5-15.45-34.5-34.5-34.5h0Z"/>
  </g>
  <g>
    <path d="M72.93,889.32c-17.65,0-32-14.36-32-32s14.35-32,32-32,32,14.36,32,32-14.35,32-32,32Z"/>
    <path d="M72.93,827.82c16.27,0,29.5,13.23,29.5,29.5s-13.23,29.5-29.5,29.5-29.5-13.23-29.5-29.5,13.23-29.5,29.5-29.5M72.93,822.82c-19.05,0-34.5,15.45-34.5,34.5s15.45,34.5,34.5,34.5,34.5-15.45,34.5-34.5-15.45-34.5-34.5-34.5h0Z"/>
  </g>
  <path class="cls-3" d="M487.95,654.98c-.24-.41-.72-.55-1.34-.55-.98,0-2.57.77-3.14,1.04-.38-.37-.56-.95-.62-1.47,1.68-1.25,5.21-3.24,6.34-3.24,1.2,0,1.75.95,2.54,3.46l1.34,4.22,2.4-3.46c2.36-3.4,3.94-4.22,6.34-4.22,1.1,0,2.4.72,2.4,1.92,0,1.1-.86,2.06-1.54,2.06-.48,0-1.23-.2-1.58-.48-.43-.34-1.06-.48-1.44-.48-.34,0-1.5.18-2.26,1.3l-3.65,5.38,2.59,7.73c.39,1.17.72,1.78,1.15,1.78.53,0,1.15-.38,2.4-1.97.53.09.97.47,1.15.91-1.49,2.5-3.6,3.41-5.28,3.41s-2.13-.77-2.74-2.69l-1.85-5.83-3.34,4.78c-2.1,3.01-3.26,3.74-4.9,3.74-1.1,0-2.79-.58-2.79-1.82,0-1.06.77-1.82,1.82-1.82.48,0,.96.1,1.39.29.38.19.91.29,1.3.29.34,0,.84-.18,1.34-.91l4.49-6.6-1.7-4.73c-.3-.84-.62-1.65-.84-2.02Z"/>
  <path class="cls-3" d="M493.2,866.13c.67-.54,2.4-2.79,3-3.6,1.85-2.48,3.62-6.2,3.62-8.3,0-.79-.28-1.78-1.01-2.88-.16-.24-.26-.69-.26-.98,0-1.17.83-1.78,2.23-1.78,1.85,0,2.52.91,2.52,2.28,0,1.69-.59,3.45-1.3,5.12-1.35,3.17-3.55,6.08-4.6,7.56-.69.98-2.51,3.29-4,4.94-.91,1.01-1.57,1.75-2.07,1.75-.65,0-1.17-.96-1.54-3.07l-2.02-11.71c-.37-2.13-.65-2.93-1.1-2.93-.91,0-2.02,1.02-3.36,2.32-.54-.07-.89-.38-1.02-.87,1.68-2.56,4.46-5.39,6.06-5.39,1.78,0,2.35,1.78,3.02,6.24l1.61,11.18.21.12Z"/>
  <path class="cls-3" d="M493.36,1065.01c-3.1,4.76-6.91,7.87-9.46,7.87-.82,0-2.93-.43-2.93-2.02,0-1.49,1.2-2.45,2.21-2.45.38,0,1.34.38,1.68.67.29.24,1.2.86,1.68.86.67,0,2.69-2.11,4.66-5.33.57-1.22-.89-12.92-2.35-17.81-.26-.87-.53-1.65-.74-2.02-.24-.41-.72-.55-1.34-.55-.98,0-2.57.77-3.14,1.04-.38-.37-.56-.95-.62-1.47,1.68-1.25,5.21-3.24,6.34-3.24,1.2,0,1.82,1.01,2.5,3.55,1.44,5.93,1.78,10.46,2.06,16.06l.31.14c1.23-1.8,3.7-5.81,3.7-5.81,1.66-2.61,3.62-6.2,3.62-8.3,0-.79-.28-1.78-1.01-2.88-.16-.24-.26-.69-.26-.98,0-1.17.83-1.78,2.23-1.78,1.85,0,2.51.91,2.51,2.28,0,1.69-.58,3.45-1.3,5.12-1.35,3.17-7.21,12.13-8.15,13.68l-2.18,3.36Z"/>
  <path class="cls-4" d="M711.18,645.7c-.29-.29-.29-1.3,0-1.58,2.11.05,4.31.1,5.33.1,1.14,0,3.41-.05,5.38-.1.29.29.29,1.3,0,1.58-3.36.34-4.18.62-4.18,4.9v23.57c0,.91-.43,1.49-1.1,1.49-.77,0-1.39-.43-1.92-1.15l-16.75-21.17c-.82-1.06-1.34-1.58-1.63-1.58-.38,0-.38.72-.38,2.35v14.69c0,4.37.82,4.56,4.18,4.9.29.29.29,1.3,0,1.58-2.02-.05-4.22-.1-5.33-.1s-3.31.05-5.38.1c-.29-.29-.29-1.3,0-1.58,3.36-.34,4.18-.62,4.18-4.9v-20.02c-.29-1.25-1.73-2.93-3.79-3.07-.29-.29-.29-1.3,0-1.58l6.48.1,16.46,20.88c1.39,1.78,2.11,2.64,2.3,2.64.34,0,.34-.53.34-1.44v-15.7c0-4.37-.82-4.56-4.18-4.9Z"/>
  <path d="M67.85,672.52c-2.63-2.62-4.21-7.46-4.21-12.58,0-9.5,4.51-15.17,9.26-15.17,2.59,0,4.6,1.45,5.86,3.12,2.11,2.78,3.26,6.86,3.26,11.62,0,11.28-5.62,15.03-9.31,15.03-1.86,0-3.5-.65-4.87-2.02ZM67.82,660.47c0,4.18.48,12.38,4.94,12.38.86,0,3.22-.43,4.27-4.37.67-2.45.82-5.47.82-9.89,0-6.43-1.3-10.08-2.78-11.33-.58-.53-1.34-.82-2.16-.82-2.16,0-5.09,2.21-5.09,14.02Z"/>
  <path class="cls-4" d="M79.77,870.69c.29.29.29,1.3,0,1.58-2.4-.05-3.57-.1-5.86-.1-2.6,0-4.32.05-6.67.1-.29-.29-.29-1.3,0-1.58,3.36-.14,4.66-.38,4.66-4.37v-15.65c0-1.63-.17-2.78-.96-2.78-.91,0-1.99.29-4.18,1.2-.43-.29-.64-.75-.72-1.3,4.22-1.97,6.75-3.15,9.41-4.8.17,0,.29,0,.29.24-.08.62-.14,3.55-.14,6.43v16.66c0,3.98.82,4.22,4.18,4.37Z"/>
  <line class="cls-5" x1="280.75" y1="265.66" x2="492.7" y2="67.34"/>
  <line class="cls-5" x1="280.75" y1="67.34" x2="492.7" y2="67.34"/>
  <line class="cls-5" x1="280.75" y1="67.34" x2="280.75" y2="265.66"/>
  <line class="cls-5" x1="280.75" y1="460.66" x2="280.75" y2="265.66"/>
  <line class="cls-5" x1="492.7" y1="265.66" x2="280.75" y2="460.66"/>
  <path class="cls-5" d="M280.75,265.66h211.95s-211.95,0-211.95,0Z"/>
  <g>
    <path class="cls-2" d="M492.7,99.34c-17.64,0-32-14.35-32-32s14.36-32,32-32,32,14.35,32,32-14.36,32-32,32Z"/>
    <path d="M492.7,37.84c16.27,0,29.5,13.23,29.5,29.5s-13.23,29.5-29.5,29.5-29.5-13.23-29.5-29.5,13.23-29.5,29.5-29.5M492.7,32.84c-19.05,0-34.5,15.45-34.5,34.5s15.45,34.5,34.5,34.5,34.5-15.45,34.5-34.5-15.45-34.5-34.5-34.5h0Z"/>
  </g>
  <g>
    <path class="cls-2" d="M492.7,297.66c-17.64,0-32-14.35-32-32s14.36-32,32-32,32,14.35,32,32-14.36,32-32,32Z"/>
    <path d="M492.7,236.16c16.27,0,29.5,13.23,29.5,29.5s-13.23,29.5-29.5,29.5-29.5-13.23-29.5-29.5,13.23-29.5,29.5-29.5M492.7,231.16c-19.05,0-34.5,15.45-34.5,34.5s15.45,34.5,34.5,34.5,34.5-15.45,34.5-34.5-15.45-34.5-34.5-34.5h0Z"/>
  </g>
  <g>
    <path class="cls-2" d="M280.75,99.34c-17.65,0-32-14.35-32-32s14.35-32,32-32,32,14.35,32,32-14.35,32-32,32Z"/>
    <path d="M280.75,37.84c16.27,0,29.5,13.23,29.5,29.5s-13.23,29.5-29.5,29.5-29.5-13.23-29.5-29.5,13.23-29.5,29.5-29.5M280.75,32.84c-19.05,0-34.5,15.45-34.5,34.5s15.45,34.5,34.5,34.5,34.5-15.45,34.5-34.5-15.45-34.5-34.5-34.5h0Z"/>
  </g>
  <g>
    <path class="cls-2" d="M280.75,297.66c-17.65,0-32-14.35-32-32s14.35-32,32-32,32,14.35,32,32-14.35,32-32,32Z"/>
    <path d="M280.75,236.16c16.27,0,29.5,13.23,29.5,29.5s-13.23,29.5-29.5,29.5-29.5-13.23-29.5-29.5,13.23-29.5,29.5-29.5M280.75,231.16c-19.05,0-34.5,15.45-34.5,34.5s15.45,34.5,34.5,34.5,34.5-15.45,34.5-34.5-15.45-34.5-34.5-34.5h0Z"/>
  </g>
  <g>
    <path class="cls-2" d="M280.75,492.66c-17.65,0-32-14.35-32-32s14.35-32,32-32,32,14.35,32,32-14.35,32-32,32Z"/>
    <path d="M280.75,431.16c16.27,0,29.5,13.23,29.5,29.5s-13.23,29.5-29.5,29.5-29.5-13.23-29.5-29.5,13.23-29.5,29.5-29.5M280.75,426.16c-19.05,0-34.5,15.45-34.5,34.5s15.45,34.5,34.5,34.5,34.5-15.45,34.5-34.5-15.45-34.5-34.5-34.5h0Z"/>
  </g>
  <path class="cls-3" d="M484.78,77.67l-2.02-11.71c-.37-2.13-.65-2.93-1.1-2.93-.91,0-2.02,1.02-3.36,2.32-.54-.07-.89-.37-1.02-.87,1.68-2.56,4.46-5.39,6.06-5.39,1.78,0,2.31,1.78,3.02,6.24l1.63,10.23.12.07c1.13-1.73,4.27-7.44,6.26-12.07.77-.38,1.56-.55,2.35-.58.34.84.75,2.44,1.2,4.27.62,2.6,1.27,5.79,1.68,8.3l.36.1c.63-.69,1.4-1.61,2.15-2.62,1.82-2.47,3.07-6.14,3.07-8.3,0-.79-.28-1.78-1.01-2.88-.16-.24-.26-.69-.26-.98,0-1.17.83-1.78,2.23-1.78,1.85,0,2.52.91,2.52,2.28,0,1.69-.59,3.45-1.3,5.12-1.35,3.17-3.05,6.13-4.09,7.61-.69.98-2.21,3.14-3.6,4.87-.96,1.2-1.66,1.78-2.21,1.78-.42,0-.77-.48-1.1-2.8-.47-3.21-1.2-7.09-1.9-10.16l-.29.05c-1.66,3.6-4.31,8.23-6.09,11.04-.75,1.19-1.63,1.87-2,1.87-.43,0-.88-.65-1.3-3.07Z"/>
  <path class="cls-3" d="M502.65,257.41c-.48.77-1.44,1.78-2.64,3.22-2.71,3.36-7.98,8.74-11.33,12.48,4.42,0,4.15,1.68,6.58,1.68,1.34,0,2.74-.24,4.56-3.17.58,0,.92.16,1.2.48-2.26,5.18-3.84,6.38-5.91,6.38-1.34,0-2.93-.48-4.13-1.2-1.54-.96-2.83-1.25-3.65-1.25-.48,0-1.68.77-2.74,2.54-.38-.05-.72-.14-1.1-.29-.29-.05-.53-.29-.67-.62.19-.67,2.02-2.93,2.98-4.03l11.54-12.71c-.47.07-.86.09-1.51.09-1.39,0-3.22-.43-5.38-.43s-3.02.48-4.03,2.69c-.53,0-.96-.05-1.3-.38.82-2.83,2.98-5.95,4.66-5.95,1.34,0,2.78.24,5.09.62,2.26.48,2.93.67,3.79.67.77,0,1.49-.29,2.59-1.54l1.39.72Z"/>
  <path class="cls-5" d="M246.25,67.34H99.78c-14.83,0-26.85,12.02-26.85,26.85v530.3"/>
  <path class="cls-5" d="M246.25,265.66h-43.97c-14.05,0-25.44,11.39-25.44,25.44v445.06c0,14.05-5.73,27.49-15.86,37.22l-62.86,60.37"/>
  <path class="cls-5" d="M72.93,891.82v10.84c0,9.29,3.61,18.22,10.08,24.89l161.31,166.52c6.75,6.97,16.05,10.9,25.76,10.88l237.99-.43c9.35-.02,18.32-3.69,24.99-10.24l214.73-210.75c6.89-6.77,10.76-16.03,10.72-25.7l-.61-132.85c-.04-9.07-3.53-17.79-9.75-24.39l-19.26-20.42"/>
  <path class="cls-5" d="M38.43,658.99h0c-19.82-.08-35.93,15.96-35.93,35.78v208.91c0,9.47,3.76,18.56,10.45,25.27l213.67,214.2c6.71,6.73,15.82,10.51,25.33,10.51h282.61c9.54,0,18.69-3.81,25.4-10.59l238.02-240.03c6.64-6.7,10.37-15.75,10.37-25.19v-183.15c0-19.72-15.96-35.72-35.68-35.78l-33.73-.09"/>
</svg>