<?xml version="1.0" encoding="UTF-8"?>
<svg id="Layer_1" data-name="Layer 1" xmlns="http://www.w3.org/2000/svg" viewBox="0 0 488.77 267.33">
  <defs>
    <style>
      .cls-1 {
        fill: #0071bc;
      }

      .cls-2 {
        fill: #fff;
      }

      .cls-3 {
        stroke-width: 2px;
      }

      .cls-3, .cls-4 {
        fill: none;
        stroke: #000;
        stroke-miterlimit: 10;
      }

      .cls-4 {
        stroke-width: 5px;
      }
    </style>
  </defs>
  <line class="cls-4" x1="454.27" y1="232.89" x2="246.45" y2="232.88"/>
  <line class="cls-4" x1="456.34" y1="34.5" x2="248.52" y2="232.83"/>
  <line class="cls-4" x1="454.27" y1="34.5" x2="454.27" y2="232.83"/>
  <line class="cls-4" x1="34.5" y1="34.5" x2="34.5" y2="232.83"/>
  <line class="cls-4" x1="246.45" y1="232.83" x2="34.5" y2="232.83"/>
  <line class="cls-4" x1="34.5" y1="34.5" x2="246.45" y2="232.83"/>
  <g>
    <path d="M34.5,66.5c-17.65,0-32-14.35-32-32S16.85,2.5,34.5,2.5s32,14.35,32,32-14.35,32-32,32Z"/>
    <path d="M34.5,5c16.27,0,29.5,13.23,29.5,29.5s-13.23,29.5-29.5,29.5S5,50.77,5,34.5,18.23,5,34.5,5M34.5,0C15.45,0,0,15.45,0,34.5s15.45,34.5,34.5,34.5,34.5-15.45,34.5-34.5S53.55,0,34.5,0h0Z"/>
  </g>
  <g>
    <path class="cls-2" d="M34.5,264.83c-17.65,0-32-14.36-32-32s14.35-32,32-32,32,14.36,32,32-14.35,32-32,32Z"/>
    <path d="M34.5,203.33c16.27,0,29.5,13.23,29.5,29.5s-13.23,29.5-29.5,29.5-29.5-13.23-29.5-29.5,13.23-29.5,29.5-29.5M34.5,198.33c-19.05,0-34.5,15.45-34.5,34.5s15.45,34.5,34.5,34.5,34.5-15.45,34.5-34.5-15.45-34.5-34.5-34.5h0Z"/>
  </g>
  <g>
    <path class="cls-1" d="M246.45,264.83c-17.64,0-32-14.36-32-32s14.36-32,32-32,32,14.35,32,32-14.36,32-32,32Z"/>
    <path d="M246.45,203.33c16.27,0,29.5,13.23,29.5,29.5s-13.23,29.5-29.5,29.5-29.5-13.23-29.5-29.5,13.23-29.5,29.5-29.5M246.45,198.33c-19.05,0-34.5,15.45-34.5,34.5s15.45,34.5,34.5,34.5,34.5-15.45,34.5-34.5-15.45-34.5-34.5-34.5h0Z"/>
  </g>
  <g>
    <path class="cls-2" d="M454.27,66.5c-17.65,0-32-14.35-32-32s14.35-32,32-32,32,14.35,32,32-14.35,32-32,32Z"/>
    <path d="M454.27,5c16.27,0,29.5,13.23,29.5,29.5s-13.23,29.5-29.5,29.5-29.5-13.23-29.5-29.5,13.23-29.5,29.5-29.5M454.27,0C435.22,0,419.77,15.45,419.77,34.5s15.45,34.5,34.5,34.5,34.5-15.45,34.5-34.5S473.32,0,454.27,0h0Z"/>
  </g>
  <g>
    <path d="M454.27,264.83c-17.65,0-32-14.36-32-32s14.35-32,32-32,32,14.35,32,32-14.35,32-32,32Z"/>
    <path d="M454.27,203.33c16.27,0,29.5,13.23,29.5,29.5s-13.23,29.5-29.5,29.5-29.5-13.23-29.5-29.5,13.23-29.5,29.5-29.5M454.27,198.33c-19.05,0-34.5,15.45-34.5,34.5s15.45,34.5,34.5,34.5,34.5-15.45,34.5-34.5-15.45-34.5-34.5-34.5h0Z"/>
  </g>
  <path class="cls-2" d="M29.75,30.49c-.24-.41-.72-.55-1.34-.55-.98,0-2.57.77-3.14,1.04-.38-.37-.56-.95-.62-1.47,1.68-1.25,5.21-3.24,6.34-3.24,1.2,0,1.75.95,2.54,3.46l1.34,4.22,2.4-3.46c2.36-3.4,3.94-4.22,6.34-4.22,1.1,0,2.4.72,2.4,1.92,0,1.1-.86,2.06-1.54,2.06-.48,0-1.23-.2-1.58-.48-.43-.34-1.06-.48-1.44-.48-.34,0-1.5.18-2.26,1.3l-3.65,5.38,2.59,7.73c.39,1.17.72,1.78,1.15,1.78.53,0,1.15-.38,2.4-1.97.53.09.97.47,1.15.91-1.49,2.5-3.6,3.41-5.28,3.41s-2.13-.77-2.74-2.69l-1.85-5.83-3.34,4.78c-2.1,3.01-3.26,3.74-4.9,3.74-1.1,0-2.79-.58-2.79-1.82,0-1.06.77-1.82,1.82-1.82.48,0,.96.1,1.39.29.38.19.91.29,1.3.29.34,0,.84-.18,1.34-.91l4.49-6.6-1.7-4.73c-.3-.84-.62-1.65-.84-2.02Z"/>
  <path d="M30.58,230.31c-.24-.41-.72-.55-1.34-.55-.98,0-2.57.77-3.14,1.04-.38-.37-.56-.95-.62-1.47,1.68-1.25,5.21-3.24,6.34-3.24,1.2,0,1.75.95,2.54,3.46l1.34,4.22,2.4-3.46c2.36-3.4,3.94-4.22,6.34-4.22,1.1,0,2.4.72,2.4,1.92,0,1.1-.86,2.06-1.54,2.06-.48,0-1.23-.2-1.58-.48-.43-.34-1.06-.48-1.44-.48-.34,0-1.5.18-2.26,1.3l-3.65,5.38,2.59,7.73c.39,1.17.72,1.78,1.15,1.78.53,0,1.15-.38,2.4-1.97.53.09.97.47,1.15.91-1.49,2.5-3.6,3.41-5.28,3.41s-2.13-.77-2.74-2.69l-1.85-5.83-3.34,4.78c-2.1,3.01-3.26,3.74-4.9,3.74-1.1,0-2.79-.58-2.79-1.82,0-1.06.77-1.82,1.82-1.82.48,0,.96.1,1.39.29.38.19.91.29,1.3.29.34,0,.84-.18,1.34-.91l4.49-6.6-1.7-4.73c-.3-.84-.62-1.65-.84-2.02Z"/>
  <path class="cls-2" d="M253.19,219.69c-.29-.29-.29-1.3,0-1.58,2.11.05,4.31.1,5.33.1,1.14,0,3.41-.05,5.38-.1.29.29.29,1.3,0,1.58-3.36.34-4.18.62-4.18,4.9v23.57c0,.91-.43,1.49-1.1,1.49-.77,0-1.39-.43-1.92-1.15l-16.75-21.17c-.82-1.06-1.34-1.58-1.63-1.58-.38,0-.38.72-.38,2.35v14.69c0,4.37.82,4.56,4.18,4.9.29.29.29,1.3,0,1.58-2.02-.05-4.22-.1-5.33-.1s-3.31.05-5.38.1c-.29-.29-.29-1.3,0-1.58,3.36-.34,4.18-.62,4.18-4.9v-20.02c-.29-1.25-1.73-2.93-3.79-3.07-.29-.29-.29-1.3,0-1.58l6.48.1,16.46,20.88c1.39,1.78,2.11,2.64,2.3,2.64.34,0,.34-.53.34-1.44v-15.7c0-4.37-.82-4.56-4.18-4.9Z"/>
  <path d="M449.19,48.03c-2.63-2.62-4.21-7.46-4.21-12.58,0-9.5,4.51-15.17,9.26-15.17,2.59,0,4.6,1.45,5.86,3.12,2.11,2.78,3.26,6.86,3.26,11.62,0,11.28-5.62,15.03-9.31,15.03-1.86,0-3.5-.65-4.87-2.02ZM449.16,35.98c0,4.18.48,12.38,4.94,12.38.86,0,3.22-.43,4.27-4.37.67-2.45.82-5.47.82-9.89,0-6.43-1.3-10.08-2.78-11.33-.58-.53-1.34-.82-2.16-.82-2.16,0-5.09,2.21-5.09,14.02Z"/>
  <path class="cls-2" d="M461.11,246.2c.29.29.29,1.3,0,1.58-2.4-.05-3.57-.1-5.86-.1-2.6,0-4.32.05-6.67.1-.29-.29-.29-1.3,0-1.58,3.36-.14,4.66-.38,4.66-4.37v-15.65c0-1.63-.17-2.78-.96-2.78-.91,0-1.99.29-4.18,1.2-.43-.29-.64-.75-.72-1.3,4.22-1.97,6.75-3.15,9.41-4.8.17,0,.29,0,.29.24-.08.62-.14,3.55-.14,6.43v16.66c0,3.98.82,4.22,4.18,4.37Z"/>
  <line class="cls-3" x1="26.17" y1="220.11" x2="46" y2="220.11"/>
</svg>